<?xml version="1.0" encoding="iso-8859-1"?>
<!-- Generator: Adobe Illustrator 19.0.0, SVG Export Plug-In . SVG Version: 6.00 Build 0)  -->
<svg version="1.1" id="Capa_1" xmlns="http://www.w3.org/2000/svg" xmlns:xlink="http://www.w3.org/1999/xlink" x="0px" y="0px"
	 viewBox="0 0 512 512" style="enable-background:new 0 0 512 512;" xml:space="preserve">
<g>
	<g>
		<g>
			<path d="M502.256,129.92c-4.217-28.44-26.776-50.639-55.28-54.4c-11.435-1.376-22.875-2.635-34.32-3.776l-3.2,31.856
				c11.232,1.067,22.432,2.299,33.6,3.696c14.27,2.014,25.482,13.233,27.488,27.504c6.229,40.101,9.391,80.618,9.456,121.2
				c-0.029,40.574-3.158,81.087-9.36,121.184c-1.994,14.262-13.184,25.484-27.44,27.52c-124.318,14.992-249.986,14.992-374.304,0
				c-14.27-2.014-25.482-13.233-27.488-27.504c-12.48-80.318-12.48-162.082,0-242.4c1.995-14.241,13.159-25.451,27.392-27.504
				c60.587-7.31,121.55-11.082,182.576-11.296l-0.096-32c-62.262,0.219-124.458,4.065-186.272,11.52
				c-28.498,3.767-51.048,25.965-55.264,54.4c-12.992,83.557-12.992,168.619,0,252.176c4.216,28.435,26.766,50.633,55.264,54.4
				C128.385,444.14,192.163,447.981,256,448c63.837-0.032,127.614-3.879,190.992-11.52c28.498-3.767,51.048-25.965,55.264-54.4
				c6.458-41.717,9.715-83.866,9.744-126.08C511.967,213.786,508.709,171.637,502.256,129.92z"/>
			<path d="M315.92,65.136c-10.773-0.416-21.541-0.715-32.304-0.896l-0.576,32c10.56,0.171,21.115,0.459,31.664,0.864L315.92,65.136
				z"/>
			<path d="M380.432,68.896c-10.731-0.832-21.472-1.568-32.224-2.208l-1.872,32c10.539,0.629,21.077,1.355,31.616,2.176
				L380.432,68.896z"/>
			<path d="M192,364.88L366.192,256L192,147.2V364.88z M224,204.88L305.808,256L224,307.2V204.88z"/>
		</g>
	</g>
</g>
<g>
</g>
<g>
</g>
<g>
</g>
<g>
</g>
<g>
</g>
<g>
</g>
<g>
</g>
<g>
</g>
<g>
</g>
<g>
</g>
<g>
</g>
<g>
</g>
<g>
</g>
<g>
</g>
<g>
</g>
</svg>
