<?xml version="1.0" encoding="iso-8859-1"?>
<!-- Generator: Adobe Illustrator 19.0.0, SVG Export Plug-In . SVG Version: 6.00 Build 0)  -->
<svg version="1.1" id="Capa_1" xmlns="http://www.w3.org/2000/svg" xmlns:xlink="http://www.w3.org/1999/xlink" x="0px" y="0px"
	 viewBox="0 0 509.075 509.075" style="enable-background:new 0 0 509.075 509.075;" xml:space="preserve">
<g>
	<g>
		<g>
			<path d="M295.795,412.548l18.128,26.384c9.338-6.419,18.268-13.414,26.736-20.944l-21.28-23.904
				C311.915,400.73,304.038,406.897,295.795,412.548z"/>
			<path d="M439.603,125.012C434.38,63.377,380.181,17.645,318.546,22.868c-58.037,4.918-102.619,53.499-102.544,111.744v31.504
				c-71.694-4.376-137.889-39.887-181.184-97.2L13.907,41.492L6.403,75.156c-4.278,19.529-6.423,39.464-6.4,59.456
				c-0.437,98.681,52.973,189.748,139.312,237.536c-13.264,21.296-45.6,40.592-96.368,57.52L5.795,442.052l35.2,17.168
				c37.044,18.135,77.763,27.508,119.008,27.392c43.412-0.007,86.195-10.368,124.8-30.224l-14.688-28.432
				c-54.874,28.192-118.462,34.295-177.696,17.056c47.52-20.96,74.192-45.456,82.944-75.648l3.76-12.944l-12.112-5.904
				C84.123,310.622,31.582,226.6,32.003,134.612c0-6.4,0.256-12.8,0.752-19.2c52.457,53.5,124.322,83.509,199.248,83.2h16v-64
				c0-44.183,35.817-80,80-80c44.183,0,80,35.817,80,80v9.28l42.928,24.528l-50.928,38.192v8
				c0.122,37.764-8.764,75.013-25.92,108.656l28.528,14.496c18.214-35.69,28.218-75.001,29.28-115.056l77.184-57.904
				L439.603,125.012z"/>
			<path d="M340.515,372.82l24,21.088c7.484-8.514,14.431-17.486,20.8-26.864l-26.448-18.032
				C353.237,357.312,347.109,365.263,340.515,372.82z"/>
		</g>
	</g>
</g>
<g>
</g>
<g>
</g>
<g>
</g>
<g>
</g>
<g>
</g>
<g>
</g>
<g>
</g>
<g>
</g>
<g>
</g>
<g>
</g>
<g>
</g>
<g>
</g>
<g>
</g>
<g>
</g>
<g>
</g>
</svg>
