<svg id="svg" version="1.1" xmlns="http://www.w3.org/2000/svg" xmlns:xlink="http://www.w3.org/1999/xlink" width="400" height="400" viewBox="0, 0, 400,400"><g id="svgg"><path id="path0" d="M199.055 0.600 C 198.883 1.049,199.120 1.200,200.000 1.200 C 200.880 1.200,201.117 1.049,200.945 0.600 C 200.818 0.270,200.393 0.000,200.000 0.000 C 199.607 0.000,199.182 0.270,199.055 0.600 M370.400 99.966 C 370.400 100.433,369.931 100.941,369.200 101.264 C 368.540 101.556,368.000 101.903,368.000 102.035 C 368.000 102.166,367.145 102.707,366.100 103.236 C 365.055 103.765,363.454 104.693,362.542 105.299 C 361.630 105.904,360.779 106.400,360.650 106.400 C 360.521 106.400,359.431 107.030,358.227 107.800 C 357.023 108.570,355.927 109.200,355.791 109.200 C 355.655 109.200,354.792 109.707,353.872 110.327 C 352.952 110.946,351.533 111.761,350.717 112.137 C 349.901 112.514,349.129 112.991,349.001 113.198 C 348.874 113.405,347.613 114.126,346.200 114.800 C 344.787 115.474,343.523 116.201,343.391 116.414 C 343.259 116.627,342.363 117.161,341.400 117.600 C 340.437 118.039,339.544 118.567,339.416 118.773 C 339.289 118.980,338.153 119.650,336.892 120.263 C 335.632 120.876,333.880 121.833,333.000 122.389 C 330.194 124.162,329.842 124.371,327.600 125.593 C 326.390 126.253,324.500 127.338,323.400 128.005 C 322.300 128.672,321.130 129.334,320.800 129.476 C 320.470 129.618,319.448 130.244,318.528 130.867 C 317.608 131.490,316.741 132.000,316.600 132.000 C 316.459 132.000,315.592 132.507,314.672 133.127 C 313.752 133.746,312.333 134.561,311.517 134.937 C 310.701 135.314,309.929 135.792,309.800 136.000 C 309.671 136.208,308.899 136.684,308.083 137.056 C 307.267 137.429,306.330 137.953,306.000 138.220 C 305.670 138.487,304.320 139.283,303.000 139.989 C 301.680 140.695,299.610 141.874,298.400 142.609 C 297.190 143.344,295.082 144.504,293.716 145.186 C 292.349 145.868,291.126 146.595,290.999 146.802 C 290.871 147.009,290.099 147.486,289.283 147.863 C 288.467 148.239,287.048 149.054,286.128 149.673 C 285.208 150.293,284.341 150.800,284.200 150.800 C 284.059 150.800,283.192 151.310,282.272 151.933 C 281.352 152.556,280.330 153.182,280.000 153.324 C 275.726 155.168,275.437 156.017,277.604 160.360 C 288.467 182.129,288.112 220.736,276.851 242.400 C 271.535 252.626,266.453 257.600,258.010 260.838 C 256.227 261.522,250.197 261.528,248.390 260.848 C 237.369 256.697,229.568 246.192,224.442 228.600 C 221.430 218.266,219.909 200.465,221.227 190.989 C 221.789 186.944,221.393 186.843,217.000 189.919 L 215.400 191.039 215.344 199.419 C 214.983 252.907,158.590 283.419,114.653 253.899 C 110.722 251.258,110.992 251.272,107.600 253.533 C 106.830 254.046,105.480 254.821,104.600 255.256 C 103.720 255.690,102.010 256.649,100.800 257.386 C 99.590 258.124,97.520 259.305,96.200 260.011 C 94.880 260.717,93.530 261.506,93.200 261.765 C 92.870 262.023,92.060 262.491,91.400 262.805 C 90.740 263.119,89.448 263.876,88.528 264.488 C 87.608 265.099,86.741 265.600,86.600 265.600 C 86.459 265.600,85.592 266.110,84.672 266.733 C 83.752 267.356,82.730 267.982,82.400 268.124 C 82.070 268.266,80.974 268.881,79.964 269.491 C 76.754 271.429,69.246 275.769,67.586 276.645 C 66.706 277.109,65.674 277.753,65.293 278.076 C 64.912 278.399,63.568 279.155,62.308 279.757 C 61.047 280.359,59.915 281.014,59.792 281.213 C 59.669 281.411,58.413 282.126,57.000 282.800 C 55.587 283.474,54.326 284.195,54.199 284.402 C 54.071 284.609,53.299 285.084,52.483 285.456 C 51.667 285.829,50.694 286.394,50.319 286.712 C 49.945 287.030,48.865 287.690,47.919 288.179 C 46.974 288.668,44.165 290.268,41.677 291.734 C 39.189 293.200,37.057 294.400,36.939 294.400 C 36.820 294.400,36.215 294.762,35.593 295.205 C 33.394 296.771,29.903 298.400,28.747 298.400 C 27.026 298.400,26.842 299.435,28.322 300.788 C 29.000 301.407,29.664 301.803,29.799 301.668 C 29.933 301.533,30.169 301.598,30.322 301.812 C 30.669 302.297,32.766 303.575,33.700 303.871 C 34.085 303.993,34.400 304.325,34.400 304.609 C 34.400 304.928,34.705 305.045,35.200 304.916 C 35.647 304.799,36.000 304.904,36.000 305.153 C 36.000 305.399,36.236 305.600,36.525 305.600 C 36.813 305.600,37.436 305.960,37.908 306.400 C 38.380 306.840,39.044 307.200,39.383 307.200 C 39.722 307.200,40.000 307.481,40.000 307.824 C 40.000 308.167,40.155 308.352,40.344 308.235 C 40.752 307.982,42.792 308.868,42.797 309.300 C 42.799 309.465,43.070 309.600,43.400 309.600 C 43.730 309.600,44.000 309.780,44.000 310.000 C 44.000 310.220,44.270 310.400,44.600 310.400 C 44.930 310.400,45.200 310.580,45.200 310.800 C 45.200 311.020,45.560 311.200,46.000 311.200 C 46.440 311.200,46.800 311.380,46.800 311.600 C 46.800 311.820,47.070 312.000,47.400 312.000 C 47.730 312.000,48.367 312.367,48.815 312.815 C 49.263 313.263,49.792 313.529,49.990 313.406 C 50.188 313.284,50.497 313.416,50.675 313.700 C 50.854 313.984,51.495 314.434,52.100 314.700 C 52.705 314.965,53.200 315.361,53.200 315.579 C 53.200 315.797,53.468 315.872,53.797 315.746 C 54.137 315.615,54.499 315.792,54.639 316.156 C 54.773 316.508,55.072 316.679,55.303 316.537 C 55.533 316.394,55.919 316.532,56.161 316.844 C 56.402 317.155,57.095 317.629,57.700 317.896 C 58.305 318.164,58.800 318.561,58.800 318.779 C 58.800 318.997,59.070 319.071,59.400 318.945 C 59.786 318.796,60.000 318.953,60.000 319.384 C 60.000 319.872,60.217 319.985,60.800 319.800 C 61.259 319.654,61.600 319.728,61.600 319.973 C 61.600 320.208,61.836 320.400,62.125 320.400 C 62.413 320.400,63.036 320.760,63.508 321.200 C 63.980 321.640,64.644 322.000,64.983 322.000 C 65.322 322.000,65.600 322.180,65.600 322.400 C 65.600 322.620,65.960 322.800,66.400 322.800 C 66.840 322.800,67.200 322.980,67.200 323.200 C 67.200 323.420,67.470 323.600,67.800 323.600 C 68.527 323.600,68.595 324.248,67.900 324.551 C 67.625 324.670,67.895 324.666,68.500 324.541 C 69.175 324.401,69.600 324.484,69.600 324.757 C 69.600 325.000,69.960 325.200,70.400 325.200 C 70.840 325.200,71.200 325.380,71.200 325.600 C 71.200 325.820,71.436 326.000,71.725 326.000 C 72.013 326.000,72.636 326.360,73.108 326.800 C 73.580 327.240,74.229 327.600,74.550 327.600 C 74.871 327.600,75.193 327.735,75.267 327.900 C 75.340 328.065,76.255 328.633,77.300 329.163 C 78.345 329.692,79.200 330.272,79.200 330.450 C 79.200 330.629,79.470 330.671,79.800 330.545 C 80.180 330.399,80.400 330.550,80.400 330.957 C 80.400 331.311,80.611 331.600,80.869 331.600 C 81.763 331.600,84.379 333.002,84.390 333.487 C 84.395 333.756,84.668 333.872,84.997 333.746 C 85.339 333.615,85.699 333.794,85.842 334.166 C 85.979 334.522,86.296 334.768,86.546 334.711 C 87.117 334.581,90.000 336.342,90.000 336.820 C 90.000 337.015,90.270 337.071,90.600 336.945 C 90.930 336.818,91.200 336.914,91.200 337.157 C 91.200 337.401,91.560 337.600,92.000 337.600 C 92.440 337.600,92.800 337.780,92.800 338.000 C 92.800 338.220,93.070 338.400,93.400 338.400 C 93.730 338.400,94.000 338.580,94.000 338.800 C 94.000 339.020,94.270 339.200,94.600 339.200 C 94.930 339.200,95.200 339.453,95.200 339.763 C 95.200 340.128,95.480 340.252,96.000 340.116 C 96.447 339.999,96.800 340.104,96.800 340.353 C 96.800 340.599,97.036 340.800,97.325 340.800 C 97.613 340.800,98.236 341.160,98.708 341.600 C 99.180 342.040,99.844 342.400,100.183 342.400 C 100.522 342.400,100.800 342.580,100.800 342.800 C 100.800 343.020,101.160 343.200,101.600 343.200 C 102.040 343.200,102.400 343.380,102.400 343.600 C 102.400 343.820,102.670 344.000,103.000 344.000 C 103.330 344.000,103.967 344.367,104.415 344.815 C 104.863 345.263,105.404 345.521,105.617 345.389 C 105.831 345.257,106.114 345.431,106.246 345.775 C 106.378 346.119,106.702 346.400,106.967 346.400 C 107.232 346.400,107.802 346.729,108.233 347.130 C 108.664 347.532,109.238 347.787,109.508 347.697 C 109.779 347.607,110.105 347.807,110.233 348.141 C 110.361 348.476,110.721 348.652,111.033 348.532 C 111.345 348.412,111.600 348.505,111.600 348.737 C 111.600 348.970,112.500 349.573,113.600 350.078 C 114.700 350.582,115.600 351.229,115.600 351.515 C 115.600 351.801,115.825 352.008,116.100 351.974 C 116.882 351.879,118.400 352.455,118.400 352.847 C 118.400 353.041,118.670 353.200,119.000 353.200 C 119.330 353.200,119.600 353.453,119.600 353.763 C 119.600 354.128,119.880 354.252,120.400 354.116 C 120.952 353.972,121.200 354.104,121.200 354.541 C 121.200 354.940,121.422 355.090,121.800 354.945 C 122.130 354.818,122.400 354.880,122.400 355.083 C 122.400 355.285,123.030 355.698,123.800 356.000 C 124.746 356.371,125.210 356.817,125.232 357.375 C 125.249 357.829,125.354 357.975,125.465 357.700 C 125.576 357.425,125.851 357.200,126.076 357.200 C 126.301 357.200,126.393 357.442,126.279 357.738 C 126.132 358.123,126.346 358.223,127.037 358.091 C 127.589 357.985,128.000 358.097,128.000 358.353 C 128.000 358.599,128.270 358.800,128.600 358.800 C 128.930 358.800,129.200 358.980,129.200 359.200 C 129.200 359.420,129.470 359.600,129.800 359.600 C 130.130 359.600,130.400 359.780,130.400 360.000 C 130.400 360.220,130.760 360.400,131.200 360.400 C 131.640 360.400,132.000 360.580,132.000 360.800 C 132.000 361.020,132.236 361.200,132.525 361.200 C 132.813 361.200,133.445 361.569,133.930 362.020 C 134.414 362.472,134.989 362.730,135.208 362.595 C 135.427 362.460,135.714 362.631,135.846 362.975 C 135.978 363.319,136.426 363.600,136.843 363.600 C 137.259 363.600,137.600 363.780,137.600 364.000 C 137.600 364.220,137.870 364.400,138.200 364.400 C 138.530 364.400,139.145 364.745,139.567 365.167 C 139.988 365.588,140.453 365.814,140.599 365.667 C 140.746 365.521,141.119 365.748,141.429 366.171 C 141.738 366.595,142.103 366.831,142.238 366.695 C 142.374 366.559,142.860 366.797,143.318 367.224 C 143.776 367.651,144.368 368.000,144.633 368.000 C 144.898 368.000,145.222 368.281,145.354 368.625 C 145.486 368.969,145.796 369.126,146.042 368.974 C 146.288 368.822,146.604 368.856,146.745 369.049 C 147.077 369.505,149.202 370.786,150.100 371.071 C 150.485 371.193,150.800 371.525,150.800 371.809 C 150.800 372.128,151.105 372.245,151.600 372.116 C 152.047 371.999,152.400 372.104,152.400 372.353 C 152.400 372.599,152.670 372.800,153.000 372.800 C 153.330 372.800,153.600 372.980,153.600 373.200 C 153.600 373.420,153.870 373.600,154.200 373.600 C 154.927 373.600,154.994 374.245,154.300 374.562 C 154.025 374.688,154.385 374.688,155.100 374.564 C 155.815 374.439,156.400 374.497,156.400 374.694 C 156.400 374.890,157.030 375.298,157.800 375.600 C 158.570 375.902,159.200 376.296,159.200 376.475 C 159.200 376.654,159.470 376.800,159.800 376.800 C 160.130 376.800,160.400 376.980,160.400 377.200 C 160.400 377.420,160.670 377.600,161.000 377.600 C 161.330 377.600,161.600 377.780,161.600 378.000 C 161.600 378.220,161.860 378.400,162.177 378.400 C 162.982 378.400,165.600 379.993,165.600 380.482 C 165.600 380.704,165.865 380.784,166.189 380.659 C 166.514 380.535,166.919 380.655,167.089 380.925 C 167.260 381.196,167.895 381.634,168.500 381.900 C 169.105 382.165,169.600 382.561,169.600 382.779 C 169.600 382.997,169.868 383.072,170.197 382.946 C 170.532 382.817,170.897 382.987,171.030 383.333 C 171.160 383.672,171.521 383.852,171.833 383.732 C 172.145 383.612,172.400 383.680,172.400 383.883 C 172.400 384.086,173.030 384.552,173.800 384.919 C 174.585 385.294,175.214 385.898,175.232 386.294 C 175.250 386.712,175.345 386.796,175.465 386.500 C 175.751 385.791,176.400 385.879,176.400 386.627 C 176.400 387.072,176.632 387.180,177.200 387.000 C 177.659 386.854,178.000 386.928,178.000 387.173 C 178.000 387.408,178.270 387.600,178.600 387.600 C 178.930 387.600,179.200 387.780,179.200 388.000 C 179.200 388.220,179.470 388.400,179.800 388.400 C 180.130 388.400,180.400 388.653,180.400 388.963 C 180.400 389.328,180.680 389.452,181.200 389.316 C 181.640 389.201,182.000 389.274,182.000 389.479 C 182.000 389.683,182.630 390.098,183.400 390.400 C 184.170 390.702,184.800 391.096,184.800 391.275 C 184.800 391.454,185.070 391.600,185.400 391.600 C 185.730 391.600,186.000 391.780,186.000 392.000 C 186.000 392.220,186.360 392.400,186.800 392.400 C 187.240 392.400,187.600 392.580,187.600 392.800 C 187.600 393.020,187.836 393.200,188.125 393.200 C 188.413 393.200,189.045 393.569,189.530 394.020 C 190.014 394.472,190.577 394.738,190.781 394.612 C 190.984 394.486,191.297 394.622,191.475 394.915 C 191.654 395.207,192.655 395.842,193.700 396.325 C 194.745 396.809,195.600 397.378,195.600 397.589 C 195.600 397.801,195.870 397.871,196.200 397.745 C 196.580 397.599,196.800 397.750,196.800 398.157 C 196.800 398.519,197.128 398.800,197.551 398.800 C 197.964 398.800,198.526 399.070,198.800 399.400 C 199.074 399.730,199.614 400.000,200.000 400.000 C 200.386 400.000,200.926 399.730,201.200 399.400 C 201.474 399.070,202.036 398.800,202.449 398.800 C 202.872 398.800,203.200 398.519,203.200 398.157 C 203.200 397.750,203.420 397.599,203.800 397.745 C 204.130 397.871,204.400 397.801,204.400 397.589 C 204.400 397.378,205.255 396.809,206.300 396.325 C 207.345 395.842,208.346 395.207,208.525 394.915 C 208.703 394.622,209.016 394.486,209.219 394.612 C 209.423 394.738,209.986 394.472,210.470 394.020 C 210.955 393.569,211.587 393.200,211.875 393.200 C 212.164 393.200,212.400 393.020,212.400 392.800 C 212.400 392.580,212.760 392.400,213.200 392.400 C 213.640 392.400,214.000 392.220,214.000 392.000 C 214.000 391.780,214.270 391.600,214.600 391.600 C 214.930 391.600,215.200 391.454,215.200 391.275 C 215.200 391.096,215.830 390.702,216.600 390.400 C 217.370 390.098,218.000 389.683,218.000 389.479 C 218.000 389.274,218.360 389.201,218.800 389.316 C 219.302 389.447,219.600 389.328,219.600 388.996 C 219.600 388.705,220.140 388.228,220.800 387.936 C 221.460 387.644,222.000 387.257,222.000 387.075 C 222.000 386.894,222.360 386.860,222.800 387.000 C 223.368 387.180,223.600 387.072,223.600 386.627 C 223.600 385.879,224.249 385.791,224.535 386.500 C 224.667 386.828,224.748 386.784,224.768 386.371 C 224.803 385.673,227.888 383.484,228.395 383.797 C 228.572 383.906,228.827 383.708,228.961 383.356 C 229.101 382.992,229.463 382.815,229.803 382.946 C 230.132 383.072,230.400 382.997,230.400 382.779 C 230.400 382.561,230.895 382.165,231.500 381.900 C 232.105 381.634,232.740 381.196,232.911 380.925 C 233.081 380.655,233.486 380.535,233.811 380.659 C 234.135 380.784,234.400 380.704,234.400 380.482 C 234.400 379.993,237.018 378.400,237.823 378.400 C 238.140 378.400,238.400 378.220,238.400 378.000 C 238.400 377.780,238.670 377.600,239.000 377.600 C 239.330 377.600,239.600 377.420,239.600 377.200 C 239.600 376.980,239.870 376.800,240.200 376.800 C 240.530 376.800,240.800 376.654,240.800 376.475 C 240.800 376.296,241.430 375.902,242.200 375.600 C 242.970 375.298,243.600 374.890,243.600 374.694 C 243.600 374.497,244.185 374.439,244.900 374.564 C 245.615 374.688,245.975 374.688,245.700 374.562 C 245.006 374.245,245.073 373.600,245.800 373.600 C 246.130 373.600,246.400 373.420,246.400 373.200 C 246.400 372.980,246.670 372.800,247.000 372.800 C 247.330 372.800,247.600 372.599,247.600 372.353 C 247.600 372.104,247.953 371.999,248.400 372.116 C 248.895 372.245,249.200 372.128,249.200 371.809 C 249.200 371.525,249.515 371.193,249.900 371.071 C 250.798 370.786,252.923 369.505,253.255 369.049 C 253.396 368.856,253.712 368.822,253.958 368.974 C 254.204 369.126,254.514 368.969,254.646 368.625 C 254.778 368.281,255.102 368.000,255.367 368.000 C 255.632 368.000,256.224 367.651,256.682 367.224 C 257.140 366.797,257.626 366.559,257.762 366.695 C 257.897 366.831,258.262 366.595,258.571 366.171 C 258.881 365.748,259.254 365.521,259.401 365.667 C 259.547 365.814,260.012 365.588,260.433 365.167 C 260.855 364.745,261.451 364.400,261.757 364.400 C 262.064 364.400,262.417 364.133,262.542 363.807 C 262.667 363.480,263.023 363.311,263.333 363.430 C 263.643 363.549,264.009 363.354,264.146 362.998 C 264.282 362.641,264.569 362.457,264.783 362.589 C 264.996 362.721,265.537 362.463,265.985 362.015 C 266.433 361.567,267.070 361.200,267.400 361.200 C 267.730 361.200,268.000 361.020,268.000 360.800 C 268.000 360.580,268.360 360.400,268.800 360.400 C 269.240 360.400,269.600 360.220,269.600 360.000 C 269.600 359.780,269.870 359.600,270.200 359.600 C 270.530 359.600,270.800 359.420,270.800 359.200 C 270.800 358.980,271.070 358.800,271.400 358.800 C 271.730 358.800,272.000 358.599,272.000 358.353 C 272.000 358.097,272.411 357.985,272.963 358.091 C 273.654 358.223,273.868 358.123,273.721 357.738 C 273.607 357.442,273.699 357.200,273.924 357.200 C 274.149 357.200,274.424 357.425,274.535 357.700 C 274.646 357.975,274.751 357.795,274.768 357.300 C 274.787 356.781,275.054 356.400,275.400 356.400 C 275.730 356.400,276.001 356.265,276.003 356.100 C 276.008 355.668,278.048 354.782,278.456 355.035 C 278.645 355.152,278.800 354.946,278.800 354.577 C 278.800 354.104,279.035 353.968,279.600 354.116 C 280.120 354.252,280.400 354.128,280.400 353.763 C 280.400 353.453,280.670 353.200,281.000 353.200 C 281.330 353.200,281.600 353.041,281.600 352.847 C 281.600 352.455,283.118 351.879,283.900 351.974 C 284.175 352.008,284.400 351.801,284.400 351.515 C 284.400 351.229,285.300 350.582,286.400 350.078 C 287.500 349.573,288.400 348.977,288.400 348.753 C 288.400 348.520,288.763 348.461,289.250 348.616 C 289.783 348.785,290.007 348.734,289.849 348.479 C 289.711 348.255,290.453 347.664,291.499 347.165 C 292.544 346.666,293.546 346.015,293.725 345.720 C 293.903 345.425,294.216 345.286,294.419 345.412 C 294.623 345.538,295.186 345.272,295.670 344.820 C 296.155 344.369,296.787 344.000,297.075 344.000 C 297.364 344.000,297.600 343.820,297.600 343.600 C 297.600 343.380,297.960 343.200,298.400 343.200 C 298.840 343.200,299.200 343.020,299.200 342.800 C 299.200 342.580,299.478 342.400,299.817 342.400 C 300.156 342.400,300.820 342.040,301.292 341.600 C 301.764 341.160,302.387 340.800,302.675 340.800 C 302.964 340.800,303.200 340.599,303.200 340.353 C 303.200 340.104,303.553 339.999,304.000 340.116 C 304.520 340.252,304.800 340.128,304.800 339.763 C 304.800 339.453,305.070 339.200,305.400 339.200 C 305.730 339.200,306.000 339.020,306.000 338.800 C 306.000 338.580,306.270 338.400,306.600 338.400 C 306.930 338.400,307.200 338.220,307.200 338.000 C 307.200 337.780,307.560 337.600,308.000 337.600 C 308.440 337.600,308.800 337.401,308.800 337.157 C 308.800 336.914,309.070 336.818,309.400 336.945 C 309.730 337.071,310.000 337.015,310.000 336.820 C 310.000 336.342,312.883 334.581,313.454 334.711 C 313.704 334.768,314.021 334.522,314.158 334.166 C 314.301 333.794,314.661 333.615,315.003 333.746 C 315.332 333.872,315.605 333.756,315.610 333.487 C 315.621 333.002,318.237 331.600,319.131 331.600 C 319.389 331.600,319.600 331.311,319.600 330.957 C 319.600 330.550,319.820 330.399,320.200 330.545 C 320.530 330.671,320.800 330.629,320.800 330.450 C 320.800 330.272,321.655 329.692,322.700 329.163 C 323.745 328.633,324.660 328.065,324.733 327.900 C 324.807 327.735,325.129 327.600,325.450 327.600 C 325.771 327.600,326.420 327.240,326.892 326.800 C 327.364 326.360,327.987 326.000,328.275 326.000 C 328.564 326.000,328.800 325.820,328.800 325.600 C 328.800 325.380,329.160 325.200,329.600 325.200 C 330.040 325.200,330.400 325.000,330.400 324.757 C 330.400 324.484,330.825 324.401,331.500 324.541 C 332.105 324.666,332.375 324.670,332.100 324.551 C 331.405 324.248,331.473 323.600,332.200 323.600 C 332.530 323.600,332.800 323.420,332.800 323.200 C 332.800 322.980,333.160 322.800,333.600 322.800 C 334.040 322.800,334.400 322.641,334.400 322.447 C 334.400 322.252,334.715 321.993,335.100 321.871 C 335.998 321.586,338.123 320.305,338.455 319.849 C 338.596 319.656,338.900 319.614,339.131 319.757 C 339.362 319.900,339.728 319.700,339.945 319.312 C 340.162 318.924,340.462 318.729,340.612 318.879 C 340.762 319.028,341.288 318.715,341.782 318.182 C 342.276 317.649,342.799 317.332,342.944 317.477 C 343.089 317.623,343.449 317.412,343.743 317.010 C 344.038 316.607,344.486 316.406,344.739 316.562 C 344.993 316.719,345.200 316.654,345.200 316.418 C 345.200 316.183,346.055 315.587,347.100 315.095 C 348.145 314.603,349.146 313.971,349.325 313.692 C 349.503 313.412,349.812 313.284,350.010 313.406 C 350.208 313.529,350.737 313.263,351.185 312.815 C 351.633 312.367,352.270 312.000,352.600 312.000 C 352.930 312.000,353.200 311.820,353.200 311.600 C 353.200 311.380,353.560 311.200,354.000 311.200 C 354.440 311.200,354.800 311.020,354.800 310.800 C 354.800 310.580,355.070 310.400,355.400 310.400 C 355.730 310.400,356.000 310.220,356.000 310.000 C 356.000 309.780,356.270 309.600,356.600 309.600 C 356.930 309.600,357.201 309.465,357.203 309.300 C 357.208 308.868,359.248 307.982,359.656 308.235 C 359.845 308.352,360.000 308.167,360.000 307.824 C 360.000 307.467,360.342 307.200,360.800 307.200 C 361.240 307.200,361.600 307.020,361.600 306.800 C 361.600 306.580,361.870 306.400,362.200 306.400 C 362.530 306.400,362.800 306.220,362.800 306.000 C 362.800 305.780,363.070 305.600,363.400 305.600 C 363.730 305.600,364.000 305.399,364.000 305.153 C 364.000 304.904,364.353 304.799,364.800 304.916 C 365.320 305.052,365.600 304.928,365.600 304.563 C 365.600 304.253,365.825 303.996,366.100 303.991 C 366.375 303.986,367.039 303.645,367.575 303.233 C 368.112 302.820,368.787 302.574,369.075 302.684 C 369.381 302.801,369.600 302.603,369.600 302.209 C 369.600 301.838,369.804 301.601,370.053 301.684 C 370.302 301.767,371.022 301.382,371.653 300.829 L 372.800 299.822 372.800 200.055 C 372.800 105.508,372.763 100.260,372.100 99.757 C 371.096 98.994,370.400 99.080,370.400 99.966 M26.197 198.800 C 26.197 253.030,26.243 275.215,26.300 248.100 C 26.357 220.985,26.357 176.615,26.300 149.500 C 26.243 122.385,26.197 144.570,26.197 198.800 M373.797 200.000 C 373.797 254.890,373.843 277.345,373.900 249.900 C 373.957 222.455,373.957 177.545,373.900 150.100 C 373.843 122.655,373.797 145.110,373.797 200.000 M304.900 146.943 C 313.534 154.944,317.276 200.979,311.997 234.235 C 311.486 237.453,310.493 242.162,310.021 243.600 C 309.840 244.150,309.454 245.410,309.163 246.400 C 306.920 254.013,302.814 257.109,299.766 253.486 C 287.860 239.338,288.425 157.138,300.497 146.979 C 301.966 145.744,303.592 145.730,304.900 146.943 " stroke="none" fill="#060606" fill-rule="evenodd"></path><path id="path1" d="M142.180 137.161 C 141.971 137.360,140.990 137.614,140.000 137.725 C 139.010 137.837,137.390 138.138,136.400 138.393 C 135.410 138.649,134.013 138.955,133.296 139.073 C 132.579 139.192,131.894 139.449,131.773 139.644 C 131.652 139.840,131.279 140.000,130.945 140.000 C 129.022 140.000,117.781 145.342,117.267 146.500 C 117.193 146.665,116.912 146.800,116.642 146.800 C 116.372 146.800,115.802 147.117,115.375 147.504 C 114.949 147.892,113.250 149.226,111.600 150.470 C 106.825 154.070,97.600 164.313,97.600 166.016 C 97.600 166.227,97.465 166.400,97.299 166.400 C 97.134 166.400,96.553 167.255,96.009 168.300 C 95.465 169.345,94.923 170.290,94.804 170.400 C 94.582 170.607,93.502 172.867,92.130 176.000 C 91.696 176.990,90.847 179.600,90.243 181.800 C 89.640 184.000,88.978 186.353,88.773 187.028 C 88.568 187.704,88.400 188.883,88.400 189.648 C 88.400 190.414,88.213 191.227,87.985 191.455 C 87.156 192.284,87.942 213.244,88.837 214.180 C 89.037 214.389,89.200 214.973,89.200 215.478 C 89.200 219.584,98.048 238.156,100.470 239.133 C 100.651 239.207,100.800 239.484,100.800 239.750 C 100.800 240.490,109.007 248.730,112.515 251.512 C 117.083 255.135,121.397 257.583,128.200 260.415 C 137.792 264.407,152.866 265.772,162.800 263.547 C 167.194 262.563,168.410 262.232,171.800 261.099 C 192.054 254.331,209.048 235.507,213.232 215.205 C 215.052 206.371,215.251 191.963,213.605 188.200 C 213.412 187.760,213.144 186.770,213.008 186.000 C 212.873 185.230,212.661 184.013,212.537 183.296 C 212.413 182.579,212.151 181.894,211.956 181.773 C 211.760 181.652,211.600 181.201,211.600 180.771 C 211.600 180.341,211.434 179.677,211.232 179.295 C 211.030 178.913,210.457 177.520,209.960 176.200 C 208.890 173.360,206.823 169.342,205.178 166.906 C 204.530 165.946,204.000 165.080,204.000 164.983 C 204.000 164.790,202.029 162.169,199.931 159.573 C 197.105 156.075,191.091 150.378,188.769 149.000 C 188.398 148.780,187.038 147.860,185.747 146.955 C 181.242 143.798,173.897 140.509,167.600 138.827 C 166.610 138.562,165.247 138.178,164.572 137.973 C 163.896 137.768,162.692 137.600,161.895 137.600 C 161.099 137.600,160.336 137.420,160.200 137.200 C 159.886 136.693,142.712 136.656,142.180 137.161 M249.800 140.794 C 244.894 141.517,236.632 147.819,233.971 152.868 C 233.701 153.381,233.372 153.890,233.240 154.000 C 232.681 154.466,229.706 160.258,227.590 165.000 C 222.526 176.353,220.110 199.970,222.435 215.400 C 223.938 225.376,225.757 232.091,228.807 238.931 C 243.681 272.283,270.145 266.900,281.558 228.200 C 285.945 213.325,286.146 190.145,282.021 174.800 C 281.814 174.030,281.477 172.770,281.271 172.000 C 278.606 162.036,273.431 152.637,267.447 146.891 C 261.864 141.531,256.763 139.769,249.800 140.794 M300.500 147.700 C 290.768 158.129,288.465 221.151,296.899 246.200 C 302.651 263.283,309.841 252.690,312.780 222.800 C 316.610 183.859,309.177 138.401,300.500 147.700 " stroke="none" fill="#fbfbfb" fill-rule="evenodd"></path><path id="path2" d="M197.500 0.432 C 197.115 0.656,196.800 0.713,196.800 0.559 C 196.800 0.404,196.464 0.665,196.053 1.139 C 195.642 1.612,195.012 2.000,194.653 2.000 C 194.294 2.000,194.000 2.180,194.000 2.400 C 194.000 2.620,193.764 2.800,193.475 2.800 C 193.187 2.800,192.564 3.160,192.092 3.600 C 191.620 4.040,191.046 4.400,190.817 4.400 C 190.588 4.400,190.400 4.580,190.400 4.800 C 190.400 5.020,190.040 5.200,189.600 5.200 C 189.160 5.200,188.800 5.380,188.800 5.600 C 188.800 5.820,188.440 6.000,188.000 6.000 C 187.560 6.000,187.200 6.180,187.200 6.400 C 187.200 6.620,186.795 6.803,186.300 6.806 C 185.572 6.811,185.515 6.886,186.000 7.200 C 186.485 7.514,186.428 7.589,185.700 7.594 C 185.205 7.597,184.800 7.780,184.800 8.000 C 184.800 8.220,184.553 8.400,184.251 8.400 C 183.389 8.400,180.160 9.926,179.604 10.595 C 179.328 10.928,178.854 11.200,178.551 11.200 C 178.248 11.200,178.000 11.380,178.000 11.600 C 178.000 11.820,177.730 12.000,177.400 12.000 C 177.070 12.000,176.440 12.360,176.000 12.800 C 175.560 13.240,174.930 13.600,174.600 13.600 C 174.270 13.600,174.000 13.780,174.000 14.000 C 174.000 14.220,173.640 14.400,173.200 14.400 C 172.760 14.400,172.400 14.580,172.400 14.800 C 172.400 15.020,172.080 15.200,171.688 15.200 C 171.297 15.200,170.717 15.560,170.400 16.000 C 170.083 16.440,169.503 16.800,169.112 16.800 C 168.720 16.800,168.400 16.980,168.400 17.200 C 168.400 17.420,168.040 17.600,167.600 17.600 C 167.160 17.600,166.800 17.780,166.800 18.000 C 166.800 18.220,166.530 18.400,166.200 18.400 C 165.870 18.400,165.600 18.580,165.600 18.800 C 165.600 19.020,165.330 19.200,165.000 19.200 C 164.670 19.200,164.400 19.380,164.400 19.600 C 164.400 19.820,164.040 20.000,163.600 20.000 C 163.160 20.000,162.800 20.180,162.800 20.400 C 162.800 20.620,162.506 20.800,162.147 20.800 C 161.788 20.800,161.203 21.129,160.847 21.530 C 160.491 21.932,159.615 22.516,158.900 22.828 C 158.185 23.140,157.600 23.531,157.600 23.698 C 157.600 23.864,157.255 24.000,156.833 24.000 C 156.412 24.000,156.007 24.142,155.933 24.316 C 155.860 24.489,154.405 25.325,152.700 26.174 C 150.995 27.022,149.600 27.869,149.600 28.058 C 149.600 28.246,149.240 28.400,148.800 28.400 C 148.360 28.400,148.000 28.580,148.000 28.800 C 148.000 29.020,147.640 29.200,147.200 29.200 C 146.760 29.200,146.400 29.380,146.400 29.600 C 146.400 29.820,146.152 30.000,145.849 30.000 C 145.546 30.000,145.071 30.273,144.794 30.607 C 144.517 30.941,143.640 31.520,142.845 31.892 C 142.050 32.265,141.160 32.803,140.868 33.089 C 140.575 33.374,140.203 33.525,140.041 33.425 C 139.878 33.325,139.493 33.593,139.185 34.021 C 138.876 34.450,138.303 34.800,137.912 34.800 C 137.520 34.800,137.200 34.980,137.200 35.200 C 137.200 35.420,136.840 35.600,136.400 35.600 C 135.960 35.600,135.600 35.780,135.600 36.000 C 135.600 36.220,135.229 36.400,134.776 36.400 C 134.323 36.400,134.064 36.580,134.200 36.800 C 134.336 37.020,134.167 37.200,133.824 37.200 C 133.481 37.200,133.200 37.380,133.200 37.600 C 133.200 37.820,132.840 38.000,132.400 38.000 C 131.960 38.000,131.600 38.180,131.600 38.400 C 131.600 38.620,131.280 38.800,130.888 38.800 C 130.497 38.800,129.917 39.160,129.600 39.600 C 129.283 40.040,128.703 40.400,128.312 40.400 C 127.920 40.400,127.600 40.546,127.600 40.725 C 127.600 40.904,126.961 41.301,126.181 41.608 C 125.400 41.914,124.568 42.397,124.332 42.682 C 124.095 42.967,123.564 43.200,123.151 43.200 C 122.738 43.200,122.400 43.380,122.400 43.600 C 122.400 43.820,122.040 44.000,121.600 44.000 C 121.160 44.000,120.800 44.180,120.800 44.400 C 120.800 44.620,120.564 44.800,120.275 44.800 C 119.987 44.800,119.364 45.160,118.892 45.600 C 118.420 46.040,117.756 46.400,117.417 46.400 C 117.078 46.400,116.800 46.580,116.800 46.800 C 116.800 47.020,116.440 47.200,116.000 47.200 C 115.560 47.200,115.200 47.380,115.200 47.600 C 115.200 47.820,114.880 48.000,114.488 48.000 C 114.097 48.000,113.517 48.360,113.200 48.800 C 112.883 49.240,112.303 49.600,111.912 49.600 C 111.520 49.600,111.200 49.780,111.200 50.000 C 111.200 50.220,110.958 50.400,110.662 50.400 C 110.366 50.400,109.798 50.760,109.400 51.200 C 109.002 51.640,108.434 52.000,108.138 52.000 C 107.842 52.000,107.600 52.180,107.600 52.400 C 107.600 52.620,107.240 52.800,106.800 52.800 C 106.360 52.800,106.000 52.980,106.000 53.200 C 106.000 53.420,105.680 53.600,105.288 53.600 C 104.897 53.600,104.317 53.960,104.000 54.400 C 103.683 54.840,103.103 55.200,102.712 55.200 C 102.320 55.200,102.000 55.380,102.000 55.600 C 102.000 55.820,101.640 56.000,101.200 56.000 C 100.760 56.000,100.400 56.180,100.400 56.400 C 100.400 56.620,100.080 56.800,99.688 56.800 C 99.297 56.800,98.717 57.160,98.400 57.600 C 98.083 58.040,97.528 58.400,97.168 58.400 C 96.807 58.400,95.897 58.817,95.147 59.326 C 94.396 59.836,93.201 60.510,92.491 60.824 C 91.781 61.138,91.200 61.531,91.200 61.698 C 91.200 61.864,90.880 62.000,90.488 62.000 C 90.097 62.000,89.517 62.360,89.200 62.800 C 88.883 63.240,88.303 63.600,87.912 63.600 C 87.520 63.600,87.200 63.780,87.200 64.000 C 87.200 64.220,86.840 64.400,86.400 64.400 C 85.960 64.400,85.600 64.580,85.600 64.800 C 85.600 65.020,85.280 65.200,84.888 65.200 C 84.497 65.200,83.917 65.560,83.600 66.000 C 83.283 66.440,82.703 66.800,82.312 66.800 C 81.920 66.800,81.600 66.980,81.600 67.200 C 81.600 67.420,81.240 67.600,80.800 67.600 C 80.360 67.600,80.000 67.780,80.000 68.000 C 80.000 68.220,79.706 68.400,79.347 68.400 C 78.988 68.400,78.403 68.716,78.047 69.103 C 77.691 69.489,76.860 70.073,76.200 70.400 C 75.540 70.727,74.709 71.311,74.353 71.697 C 73.997 72.084,73.412 72.400,73.053 72.400 C 72.694 72.400,72.400 72.580,72.400 72.800 C 72.400 73.020,72.040 73.200,71.600 73.200 C 71.160 73.200,70.800 73.380,70.800 73.600 C 70.800 73.820,70.440 74.000,70.000 74.000 C 69.560 74.000,69.200 74.151,69.200 74.335 C 69.200 74.519,67.956 75.236,66.435 75.929 C 64.914 76.621,63.429 77.416,63.135 77.696 C 62.841 77.976,61.700 78.650,60.600 79.195 C 59.500 79.740,58.309 80.504,57.953 80.893 C 57.597 81.282,57.012 81.600,56.653 81.600 C 56.294 81.600,56.000 81.780,56.000 82.000 C 56.000 82.220,55.680 82.400,55.288 82.400 C 54.897 82.400,54.317 82.760,54.000 83.200 C 53.683 83.640,53.103 84.000,52.712 84.000 C 52.320 84.000,52.000 84.180,52.000 84.400 C 52.000 84.620,51.640 84.800,51.200 84.800 C 50.760 84.800,50.400 84.980,50.400 85.200 C 50.400 85.420,50.080 85.600,49.688 85.600 C 49.297 85.600,48.717 85.960,48.400 86.400 C 48.083 86.840,47.503 87.200,47.112 87.200 C 46.720 87.200,46.400 87.380,46.400 87.600 C 46.400 87.820,46.040 88.000,45.600 88.000 C 45.160 88.000,44.800 88.180,44.800 88.400 C 44.800 88.620,44.480 88.800,44.088 88.800 C 43.697 88.800,43.117 89.160,42.800 89.600 C 42.483 90.040,41.993 90.400,41.712 90.400 C 41.430 90.400,41.200 90.580,41.200 90.800 C 41.200 91.020,40.840 91.200,40.400 91.200 C 39.960 91.200,39.600 91.380,39.600 91.600 C 39.600 91.820,39.253 92.000,38.829 92.000 C 38.404 92.000,37.787 92.270,37.457 92.600 C 37.127 92.930,36.574 93.200,36.229 93.200 C 35.883 93.200,35.600 93.380,35.600 93.600 C 35.600 93.820,35.280 94.000,34.888 94.000 C 34.497 94.000,33.917 94.360,33.600 94.800 C 33.283 95.240,32.703 95.600,32.312 95.600 C 31.920 95.600,31.600 95.780,31.600 96.000 C 31.600 96.220,31.240 96.400,30.800 96.400 C 30.360 96.400,30.000 96.580,30.000 96.800 C 30.000 97.020,29.706 97.200,29.347 97.200 C 28.988 97.200,28.403 97.532,28.047 97.937 C 27.691 98.343,27.176 98.748,26.901 98.837 C 26.504 98.967,26.400 119.681,26.389 199.963 L 26.375 300.926 27.599 301.518 C 29.255 302.320,29.638 301.780,28.217 300.646 C 26.782 299.502,27.042 298.400,28.747 298.400 C 29.903 298.400,33.394 296.771,35.593 295.205 C 36.215 294.762,36.820 294.400,36.939 294.400 C 37.057 294.400,39.189 293.200,41.677 291.734 C 44.165 290.268,46.974 288.668,47.919 288.179 C 48.865 287.690,49.945 287.030,50.319 286.712 C 50.694 286.394,51.667 285.829,52.483 285.456 C 53.299 285.084,54.071 284.609,54.199 284.402 C 54.326 284.195,55.587 283.474,57.000 282.800 C 58.413 282.126,59.669 281.411,59.792 281.213 C 59.915 281.014,61.047 280.359,62.308 279.757 C 63.568 279.155,64.912 278.399,65.293 278.076 C 65.674 277.753,66.706 277.109,67.586 276.645 C 69.246 275.769,76.754 271.429,79.964 269.491 C 80.974 268.881,82.070 268.266,82.400 268.124 C 82.730 267.982,83.752 267.356,84.672 266.733 C 85.592 266.110,86.459 265.600,86.600 265.600 C 86.741 265.600,87.608 265.099,88.528 264.488 C 89.448 263.876,90.740 263.119,91.400 262.805 C 92.060 262.491,92.870 262.023,93.200 261.765 C 93.530 261.506,94.880 260.717,96.200 260.011 C 97.520 259.305,99.590 258.124,100.800 257.386 C 102.010 256.649,103.720 255.690,104.600 255.256 C 105.480 254.821,106.830 254.046,107.600 253.533 C 110.992 251.272,110.722 251.258,114.653 253.899 C 158.590 283.419,214.983 252.907,215.344 199.419 L 215.400 191.039 217.000 189.919 C 221.393 186.843,221.789 186.944,221.227 190.989 C 219.909 200.465,221.430 218.266,224.442 228.600 C 229.568 246.192,237.369 256.697,248.390 260.848 C 250.197 261.528,256.227 261.522,258.010 260.838 C 266.453 257.600,271.535 252.626,276.851 242.400 C 286.733 223.390,288.427 191.713,280.808 168.425 C 279.949 165.799,278.507 162.170,277.604 160.360 C 275.437 156.017,275.726 155.168,280.000 153.324 C 280.330 153.182,281.352 152.556,282.272 151.933 C 283.192 151.310,284.059 150.800,284.200 150.800 C 284.341 150.800,285.208 150.293,286.128 149.673 C 287.048 149.054,288.467 148.239,289.283 147.863 C 290.099 147.486,290.871 147.009,290.999 146.802 C 291.126 146.595,292.349 145.868,293.716 145.186 C 295.082 144.504,297.190 143.344,298.400 142.609 C 299.610 141.874,301.680 140.695,303.000 139.989 C 304.320 139.283,305.670 138.487,306.000 138.220 C 306.330 137.953,307.267 137.429,308.083 137.056 C 308.899 136.684,309.671 136.208,309.800 136.000 C 309.929 135.792,310.701 135.314,311.517 134.937 C 312.333 134.561,313.752 133.746,314.672 133.127 C 315.592 132.507,316.459 132.000,316.600 132.000 C 316.741 132.000,317.608 131.490,318.528 130.867 C 319.448 130.244,320.470 129.618,320.800 129.476 C 321.130 129.334,322.300 128.672,323.400 128.005 C 324.500 127.338,326.390 126.253,327.600 125.593 C 329.842 124.371,330.194 124.162,333.000 122.389 C 333.880 121.833,335.632 120.876,336.892 120.263 C 338.153 119.650,339.289 118.980,339.416 118.773 C 339.544 118.567,340.437 118.039,341.400 117.600 C 342.363 117.161,343.259 116.627,343.391 116.414 C 343.523 116.201,344.787 115.474,346.200 114.800 C 347.613 114.126,348.874 113.405,349.001 113.198 C 349.129 112.991,349.901 112.514,350.717 112.137 C 351.533 111.761,352.952 110.946,353.872 110.327 C 354.792 109.707,355.655 109.200,355.791 109.200 C 355.927 109.200,357.023 108.570,358.227 107.800 C 359.431 107.030,360.521 106.400,360.650 106.400 C 360.779 106.400,361.630 105.904,362.542 105.299 C 363.454 104.693,365.055 103.765,366.100 103.236 C 367.145 102.707,368.000 102.166,368.000 102.035 C 368.000 101.903,368.540 101.556,369.200 101.264 C 369.931 100.941,370.400 100.433,370.400 99.966 C 370.400 99.080,371.096 98.994,372.100 99.757 C 372.763 100.260,372.800 105.512,372.800 200.135 L 372.800 299.982 371.800 300.637 C 370.679 301.371,370.494 302.000,371.400 302.000 C 371.730 302.000,372.000 301.850,372.000 301.668 C 372.000 301.485,372.405 301.118,372.900 300.854 L 373.800 300.372 373.800 199.986 C 373.800 144.774,373.654 99.600,373.476 99.600 C 373.298 99.600,373.281 99.392,373.438 99.138 C 373.603 98.872,373.549 98.784,373.312 98.931 C 373.086 99.071,372.565 98.738,372.155 98.192 C 371.746 97.647,371.093 97.200,370.705 97.200 C 370.317 97.200,370.000 97.020,370.000 96.800 C 370.000 96.580,369.640 96.400,369.200 96.400 C 368.760 96.400,368.400 96.220,368.400 96.000 C 368.400 95.780,368.080 95.600,367.688 95.600 C 367.297 95.600,366.717 95.240,366.400 94.800 C 366.083 94.360,365.503 94.000,365.112 94.000 C 364.720 94.000,364.400 93.820,364.400 93.600 C 364.400 93.380,364.040 93.200,363.600 93.200 C 363.160 93.200,362.800 93.020,362.800 92.800 C 362.800 92.580,362.453 92.400,362.029 92.400 C 361.604 92.400,360.987 92.130,360.657 91.800 C 360.327 91.470,359.774 91.200,359.429 91.200 C 359.083 91.200,358.800 91.020,358.800 90.800 C 358.800 90.580,358.570 90.400,358.288 90.400 C 358.007 90.400,357.517 90.040,357.200 89.600 C 356.883 89.160,356.303 88.800,355.912 88.800 C 355.520 88.800,355.200 88.620,355.200 88.400 C 355.200 88.180,354.840 88.000,354.400 88.000 C 353.960 88.000,353.600 87.820,353.600 87.600 C 353.600 87.380,353.280 87.200,352.888 87.200 C 352.497 87.200,351.917 86.840,351.600 86.400 C 351.283 85.960,350.703 85.600,350.312 85.600 C 349.920 85.600,349.600 85.420,349.600 85.200 C 349.600 84.980,349.240 84.800,348.800 84.800 C 348.360 84.800,348.000 84.620,348.000 84.400 C 348.000 84.180,347.680 84.000,347.288 84.000 C 346.897 84.000,346.317 83.640,346.000 83.200 C 345.683 82.760,345.103 82.400,344.712 82.400 C 344.320 82.400,344.000 82.220,344.000 82.000 C 344.000 81.780,343.706 81.600,343.347 81.600 C 342.988 81.600,342.403 81.282,342.047 80.893 C 341.691 80.504,340.500 79.740,339.400 79.195 C 338.300 78.650,337.159 77.976,336.865 77.696 C 336.571 77.416,335.086 76.621,333.565 75.929 C 332.044 75.236,330.800 74.519,330.800 74.335 C 330.800 74.151,330.440 74.000,330.000 74.000 C 329.560 74.000,329.200 73.820,329.200 73.600 C 329.200 73.380,328.840 73.200,328.400 73.200 C 327.960 73.200,327.600 73.020,327.600 72.800 C 327.600 72.580,327.306 72.400,326.947 72.400 C 326.588 72.400,326.003 72.084,325.647 71.697 C 325.291 71.311,324.460 70.727,323.800 70.400 C 323.140 70.073,322.309 69.489,321.953 69.103 C 321.597 68.716,321.012 68.400,320.653 68.400 C 320.294 68.400,320.000 68.220,320.000 68.000 C 320.000 67.780,319.640 67.600,319.200 67.600 C 318.760 67.600,318.400 67.420,318.400 67.200 C 318.400 66.980,318.080 66.800,317.688 66.800 C 317.297 66.800,316.717 66.440,316.400 66.000 C 316.083 65.560,315.503 65.200,315.112 65.200 C 314.720 65.200,314.400 65.020,314.400 64.800 C 314.400 64.580,314.040 64.400,313.600 64.400 C 313.160 64.400,312.800 64.220,312.800 64.000 C 312.800 63.780,312.480 63.600,312.088 63.600 C 311.697 63.600,311.117 63.240,310.800 62.800 C 310.483 62.360,309.903 62.000,309.512 62.000 C 309.120 62.000,308.800 61.864,308.800 61.698 C 308.800 61.531,308.219 61.138,307.509 60.824 C 306.799 60.510,305.604 59.836,304.853 59.326 C 304.103 58.817,303.193 58.400,302.832 58.400 C 302.472 58.400,301.917 58.040,301.600 57.600 C 301.283 57.160,300.703 56.800,300.312 56.800 C 299.920 56.800,299.600 56.620,299.600 56.400 C 299.600 56.180,299.240 56.000,298.800 56.000 C 298.360 56.000,298.000 55.820,298.000 55.600 C 298.000 55.380,297.680 55.200,297.288 55.200 C 296.897 55.200,296.317 54.840,296.000 54.400 C 295.683 53.960,295.103 53.600,294.712 53.600 C 294.320 53.600,294.000 53.420,294.000 53.200 C 294.000 52.980,293.640 52.800,293.200 52.800 C 292.760 52.800,292.400 52.620,292.400 52.400 C 292.400 52.180,292.158 52.000,291.862 52.000 C 291.566 52.000,290.998 51.640,290.600 51.200 C 290.202 50.760,289.634 50.400,289.338 50.400 C 289.042 50.400,288.800 50.220,288.800 50.000 C 288.800 49.780,288.440 49.600,288.000 49.600 C 287.560 49.600,287.200 49.420,287.200 49.200 C 287.200 48.980,286.880 48.800,286.488 48.800 C 286.097 48.800,285.517 48.440,285.200 48.000 C 284.883 47.560,284.303 47.200,283.912 47.200 C 283.520 47.200,283.200 47.020,283.200 46.800 C 283.200 46.580,282.922 46.400,282.583 46.400 C 282.244 46.400,281.580 46.040,281.108 45.600 C 280.636 45.160,280.013 44.800,279.725 44.800 C 279.436 44.800,279.200 44.620,279.200 44.400 C 279.200 44.180,278.840 44.000,278.400 44.000 C 277.960 44.000,277.600 43.820,277.600 43.600 C 277.600 43.380,277.262 43.200,276.849 43.200 C 276.436 43.200,275.905 42.967,275.668 42.682 C 275.432 42.397,274.600 41.914,273.819 41.608 C 273.039 41.301,272.400 40.904,272.400 40.725 C 272.400 40.546,272.080 40.400,271.688 40.400 C 271.297 40.400,270.717 40.040,270.400 39.600 C 270.083 39.160,269.503 38.800,269.112 38.800 C 268.720 38.800,268.400 38.620,268.400 38.400 C 268.400 38.180,268.040 38.000,267.600 38.000 C 267.160 38.000,266.800 37.820,266.800 37.600 C 266.800 37.380,266.519 37.200,266.176 37.200 C 265.833 37.200,265.664 37.020,265.800 36.800 C 265.936 36.580,265.677 36.400,265.224 36.400 C 264.771 36.400,264.400 36.220,264.400 36.000 C 264.400 35.780,264.040 35.600,263.600 35.600 C 263.160 35.600,262.800 35.420,262.800 35.200 C 262.800 34.980,262.480 34.800,262.088 34.800 C 261.697 34.800,261.117 34.440,260.800 34.000 C 260.483 33.560,259.903 33.200,259.512 33.200 C 259.120 33.200,258.800 33.054,258.800 32.875 C 258.800 32.696,258.166 32.301,257.391 31.997 C 256.617 31.693,255.689 31.119,255.329 30.722 C 254.970 30.325,254.434 30.000,254.138 30.000 C 253.842 30.000,253.600 29.820,253.600 29.600 C 253.600 29.380,253.240 29.200,252.800 29.200 C 252.360 29.200,252.000 29.020,252.000 28.800 C 252.000 28.580,251.640 28.400,251.200 28.400 C 250.760 28.400,250.400 28.246,250.400 28.058 C 250.400 27.869,249.005 27.022,247.300 26.174 C 245.595 25.325,244.140 24.489,244.067 24.316 C 243.993 24.142,243.588 24.000,243.167 24.000 C 242.745 24.000,242.400 23.864,242.400 23.698 C 242.400 23.531,241.815 23.140,241.100 22.828 C 240.385 22.516,239.509 21.932,239.153 21.530 C 238.797 21.129,238.212 20.800,237.853 20.800 C 237.494 20.800,237.200 20.620,237.200 20.400 C 237.200 20.180,236.840 20.000,236.400 20.000 C 235.960 20.000,235.600 19.820,235.600 19.600 C 235.600 19.380,235.330 19.200,235.000 19.200 C 234.670 19.200,234.400 19.020,234.400 18.800 C 234.400 18.580,234.130 18.400,233.800 18.400 C 233.470 18.400,233.200 18.220,233.200 18.000 C 233.200 17.780,232.840 17.600,232.400 17.600 C 231.960 17.600,231.600 17.420,231.600 17.200 C 231.600 16.980,231.280 16.800,230.888 16.800 C 230.497 16.800,229.917 16.440,229.600 16.000 C 229.283 15.560,228.703 15.200,228.312 15.200 C 227.920 15.200,227.600 15.020,227.600 14.800 C 227.600 14.580,227.240 14.400,226.800 14.400 C 226.360 14.400,226.000 14.220,226.000 14.000 C 226.000 13.780,225.730 13.600,225.400 13.600 C 225.070 13.600,224.440 13.240,224.000 12.800 C 223.560 12.360,222.930 12.000,222.600 12.000 C 222.270 12.000,222.000 11.820,222.000 11.600 C 222.000 11.380,221.752 11.200,221.449 11.200 C 221.146 11.200,220.672 10.928,220.396 10.595 C 219.840 9.926,216.611 8.400,215.749 8.400 C 215.447 8.400,215.200 8.220,215.200 8.000 C 215.200 7.780,214.795 7.597,214.300 7.594 C 213.572 7.589,213.515 7.514,214.000 7.200 C 214.485 6.886,214.428 6.811,213.700 6.806 C 213.205 6.803,212.800 6.620,212.800 6.400 C 212.800 6.180,212.440 6.000,212.000 6.000 C 211.560 6.000,211.200 5.820,211.200 5.600 C 211.200 5.380,210.840 5.200,210.400 5.200 C 209.960 5.200,209.600 5.020,209.600 4.800 C 209.600 4.580,209.412 4.400,209.183 4.400 C 208.954 4.400,208.380 4.040,207.908 3.600 C 207.436 3.160,206.813 2.800,206.525 2.800 C 206.236 2.800,206.000 2.620,206.000 2.400 C 206.000 2.180,205.706 2.000,205.347 2.000 C 204.988 2.000,204.403 1.685,204.047 1.300 C 203.691 0.915,203.130 0.533,202.800 0.451 C 202.470 0.369,201.855 0.205,201.433 0.087 C 200.842 -0.079,200.724 0.024,200.920 0.536 C 201.122 1.062,200.931 1.200,200.000 1.200 C 199.120 1.200,198.883 1.049,199.055 0.600 C 199.321 -0.093,198.545 -0.176,197.500 0.432 M160.200 137.200 C 160.336 137.420,161.099 137.600,161.895 137.600 C 162.692 137.600,163.896 137.768,164.572 137.973 C 165.247 138.178,166.610 138.562,167.600 138.827 C 173.897 140.509,181.242 143.798,185.747 146.955 C 187.038 147.860,188.398 148.780,188.769 149.000 C 191.091 150.378,197.105 156.075,199.931 159.573 C 202.029 162.169,204.000 164.790,204.000 164.983 C 204.000 165.080,204.530 165.946,205.178 166.906 C 206.823 169.342,208.890 173.360,209.960 176.200 C 210.457 177.520,211.030 178.913,211.232 179.295 C 211.434 179.677,211.600 180.341,211.600 180.771 C 211.600 181.201,211.760 181.652,211.956 181.773 C 212.151 181.894,212.413 182.579,212.537 183.296 C 212.661 184.013,212.873 185.230,213.008 186.000 C 213.144 186.770,213.412 187.760,213.605 188.200 C 215.251 191.963,215.052 206.371,213.232 215.205 C 209.048 235.507,192.054 254.331,171.800 261.099 C 168.410 262.232,167.194 262.563,162.800 263.547 C 152.866 265.772,137.792 264.407,128.200 260.415 C 121.397 257.583,117.083 255.135,112.515 251.512 C 109.007 248.730,100.800 240.490,100.800 239.750 C 100.800 239.484,100.651 239.207,100.470 239.133 C 98.048 238.156,89.200 219.584,89.200 215.478 C 89.200 214.973,89.037 214.389,88.837 214.180 C 87.942 213.244,87.156 192.284,87.985 191.455 C 88.213 191.227,88.400 190.414,88.400 189.648 C 88.400 188.883,88.568 187.704,88.773 187.028 C 88.978 186.353,89.640 184.000,90.243 181.800 C 90.847 179.600,91.696 176.990,92.130 176.000 C 93.502 172.867,94.582 170.607,94.804 170.400 C 94.923 170.290,95.465 169.345,96.009 168.300 C 96.553 167.255,97.134 166.400,97.299 166.400 C 97.465 166.400,97.600 166.227,97.600 166.016 C 97.600 164.313,106.825 154.070,111.600 150.470 C 113.250 149.226,114.949 147.892,115.375 147.504 C 115.802 147.117,116.372 146.800,116.642 146.800 C 116.912 146.800,117.193 146.665,117.267 146.500 C 117.781 145.342,129.022 140.000,130.945 140.000 C 131.279 140.000,131.652 139.840,131.773 139.644 C 131.894 139.449,132.579 139.192,133.296 139.073 C 134.013 138.955,135.410 138.649,136.400 138.393 C 137.390 138.138,139.010 137.837,140.000 137.725 C 140.990 137.614,141.971 137.360,142.180 137.161 C 142.712 136.656,159.886 136.693,160.200 137.200 M256.270 140.773 C 266.343 142.231,276.805 155.298,281.271 172.000 C 281.477 172.770,281.814 174.030,282.021 174.800 C 286.146 190.145,285.945 213.325,281.558 228.200 C 270.145 266.900,243.681 272.283,228.807 238.931 C 225.757 232.091,223.938 225.376,222.435 215.400 C 220.110 199.970,222.526 176.353,227.590 165.000 C 229.706 160.258,232.681 154.466,233.240 154.000 C 233.372 153.890,233.701 153.381,233.971 152.868 C 234.756 151.378,235.597 150.394,238.891 147.107 C 244.325 141.686,249.512 139.796,256.270 140.773 M300.497 146.979 C 297.060 149.872,293.885 160.594,292.436 174.200 C 287.768 218.038,295.943 266.063,305.888 253.230 C 306.775 252.086,308.623 248.230,309.163 246.400 C 309.454 245.410,309.840 244.150,310.021 243.600 C 314.288 230.596,315.671 195.645,312.832 172.600 C 310.433 153.131,305.461 142.803,300.497 146.979 M304.396 147.198 C 311.370 150.930,315.864 191.445,312.780 222.800 C 310.173 249.308,303.772 261.642,298.502 250.310 C 286.585 224.682,291.411 140.248,304.396 147.198 M29.467 301.867 C 28.960 302.374,29.203 302.800,30.000 302.800 C 30.440 302.800,30.800 302.980,30.800 303.200 C 30.800 303.420,31.120 303.600,31.512 303.600 C 31.903 303.600,32.483 303.960,32.800 304.400 C 33.117 304.840,33.607 305.200,33.888 305.200 C 34.656 305.200,34.504 304.126,33.700 303.871 C 32.764 303.575,30.634 302.276,30.467 301.900 C 30.301 301.528,29.821 301.512,29.467 301.867 M369.600 302.167 C 369.600 302.515,369.885 302.800,370.233 302.800 C 370.940 302.800,370.817 301.939,370.075 301.692 C 369.814 301.605,369.600 301.818,369.600 302.167 M367.589 303.222 C 367.045 303.640,366.375 303.986,366.100 303.991 C 365.366 304.004,365.489 305.200,366.224 305.200 C 366.567 305.200,366.736 305.020,366.600 304.800 C 366.464 304.580,366.633 304.400,366.976 304.400 C 367.319 304.400,367.600 304.220,367.600 304.000 C 367.600 303.780,367.960 303.600,368.400 303.600 C 368.840 303.600,369.200 303.431,369.200 303.224 C 369.200 302.477,368.559 302.477,367.589 303.222 M34.800 305.400 C 34.800 305.941,35.275 306.178,36.100 306.047 C 36.265 306.021,36.400 306.180,36.400 306.400 C 36.400 306.620,36.683 306.800,37.029 306.800 C 37.374 306.800,37.927 307.070,38.257 307.400 C 38.938 308.080,40.000 308.202,40.000 307.600 C 40.000 307.380,39.722 307.200,39.383 307.200 C 39.044 307.200,38.380 306.840,37.908 306.400 C 37.436 305.960,36.813 305.600,36.525 305.600 C 36.236 305.600,36.000 305.420,36.000 305.200 C 36.000 304.980,35.730 304.800,35.400 304.800 C 35.070 304.800,34.800 305.070,34.800 305.400 M364.000 305.200 C 364.000 305.420,363.730 305.600,363.400 305.600 C 363.070 305.600,362.800 305.780,362.800 306.000 C 362.800 306.220,362.530 306.400,362.200 306.400 C 361.870 306.400,361.600 306.580,361.600 306.800 C 361.600 307.020,361.240 307.200,360.800 307.200 C 360.360 307.200,360.000 307.380,360.000 307.600 C 360.000 308.202,361.062 308.080,361.743 307.400 C 362.073 307.070,362.626 306.800,362.971 306.800 C 363.317 306.800,363.600 306.620,363.600 306.400 C 363.600 306.180,363.960 306.000,364.400 306.000 C 364.844 306.000,365.200 305.733,365.200 305.400 C 365.200 305.070,364.930 304.800,364.600 304.800 C 364.270 304.800,364.000 304.980,364.000 305.200 M42.093 309.300 C 42.180 309.575,42.645 309.978,43.126 310.195 C 43.607 310.412,44.000 310.727,44.000 310.895 C 44.000 311.063,44.270 311.200,44.600 311.200 C 44.930 311.200,45.200 311.020,45.200 310.800 C 45.200 310.580,44.930 310.400,44.600 310.400 C 44.270 310.400,44.000 310.201,44.000 309.957 C 44.000 309.714,43.730 309.618,43.400 309.745 C 43.035 309.885,42.800 309.745,42.800 309.387 C 42.800 309.064,42.605 308.800,42.367 308.800 C 42.128 308.800,42.005 309.025,42.093 309.300 M356.000 310.000 C 356.000 310.220,355.730 310.400,355.400 310.400 C 355.070 310.400,354.800 310.580,354.800 310.800 C 354.800 311.382,355.568 311.290,356.229 310.629 C 356.899 309.958,356.958 309.600,356.400 309.600 C 356.180 309.600,356.000 309.780,356.000 310.000 M45.600 311.600 C 45.600 311.820,45.870 312.000,46.200 312.000 C 46.530 312.000,46.800 311.820,46.800 311.600 C 46.800 311.380,46.530 311.200,46.200 311.200 C 45.870 311.200,45.600 311.380,45.600 311.600 M353.200 311.600 C 353.200 311.820,353.470 312.000,353.800 312.000 C 354.130 312.000,354.400 311.820,354.400 311.600 C 354.400 311.380,354.130 311.200,353.800 311.200 C 353.470 311.200,353.200 311.380,353.200 311.600 M47.200 312.400 C 47.200 312.620,47.481 312.800,47.824 312.800 C 48.167 312.800,48.336 312.980,48.200 313.200 C 48.064 313.420,48.233 313.600,48.576 313.600 C 49.443 313.600,49.356 312.912,48.426 312.414 C 47.459 311.896,47.200 311.893,47.200 312.400 M351.500 312.432 C 350.632 312.938,350.588 313.600,351.424 313.600 C 351.767 313.600,351.936 313.420,351.800 313.200 C 351.664 312.980,351.833 312.800,352.176 312.800 C 352.519 312.800,352.800 312.620,352.800 312.400 C 352.800 311.899,352.399 311.909,351.500 312.432 M49.856 313.478 C 49.405 313.928,49.581 314.400,50.200 314.400 C 50.530 314.400,50.800 314.231,50.800 314.024 C 50.800 313.519,50.175 313.158,49.856 313.478 M349.456 313.478 C 349.005 313.928,349.181 314.400,349.800 314.400 C 350.130 314.400,350.400 314.231,350.400 314.024 C 350.400 313.519,349.775 313.158,349.456 313.478 M51.200 314.800 C 51.200 315.020,51.560 315.200,52.000 315.200 C 52.440 315.200,52.800 315.410,52.800 315.667 C 52.800 315.923,52.935 315.999,53.099 315.834 C 53.264 315.669,53.050 315.279,52.623 314.967 C 51.712 314.301,51.200 314.241,51.200 314.800 M346.700 315.227 C 345.217 316.010,344.721 316.800,345.712 316.800 C 345.993 316.800,346.483 316.440,346.800 316.000 C 347.117 315.560,347.697 315.200,348.088 315.200 C 348.480 315.200,348.800 315.020,348.800 314.800 C 348.800 314.241,348.422 314.318,346.700 315.227 M53.600 316.167 C 53.600 316.515,53.885 316.800,54.233 316.800 C 54.940 316.800,54.817 315.939,54.075 315.692 C 53.814 315.605,53.600 315.818,53.600 316.167 M55.200 316.967 C 55.200 317.315,55.485 317.600,55.833 317.600 C 56.182 317.600,56.395 317.386,56.308 317.125 C 56.061 316.383,55.200 316.260,55.200 316.967 M343.867 316.667 C 343.406 317.127,343.575 317.600,344.200 317.600 C 344.530 317.600,344.800 317.330,344.800 317.000 C 344.800 316.375,344.327 316.206,343.867 316.667 M341.832 318.049 C 341.409 318.460,341.184 318.917,341.332 319.065 C 341.479 319.213,341.600 319.135,341.600 318.893 C 341.600 318.651,342.080 318.396,342.667 318.327 C 343.534 318.224,343.628 318.116,343.167 317.750 C 342.732 317.406,342.421 317.475,341.832 318.049 M56.800 318.000 C 56.800 318.220,57.160 318.400,57.600 318.400 C 58.040 318.400,58.400 318.610,58.400 318.867 C 58.400 319.123,58.535 319.199,58.699 319.034 C 58.864 318.869,58.650 318.479,58.223 318.167 C 57.312 317.501,56.800 317.441,56.800 318.000 M59.200 319.400 C 59.200 319.730,59.380 320.000,59.600 320.000 C 59.820 320.000,60.000 319.730,60.000 319.400 C 60.000 319.070,59.820 318.800,59.600 318.800 C 59.380 318.800,59.200 319.070,59.200 319.400 M339.846 319.425 C 339.714 319.769,339.404 319.926,339.158 319.774 C 338.912 319.622,338.596 319.656,338.455 319.849 C 338.123 320.305,335.998 321.586,335.100 321.871 C 334.715 321.993,334.400 322.252,334.400 322.447 C 334.400 322.641,334.040 322.800,333.600 322.800 C 333.160 322.800,332.800 322.980,332.800 323.200 C 332.800 323.420,332.530 323.600,332.200 323.600 C 331.870 323.600,331.600 323.780,331.600 324.000 C 331.600 324.220,331.330 324.400,331.000 324.400 C 330.670 324.400,330.400 324.580,330.400 324.800 C 330.400 325.020,330.670 325.200,331.000 325.200 C 331.330 325.200,331.600 325.059,331.600 324.886 C 331.600 324.714,332.756 324.044,334.169 323.399 C 335.583 322.753,336.652 322.084,336.546 321.912 C 336.440 321.741,336.723 321.600,337.176 321.600 C 337.629 321.600,338.000 321.454,338.000 321.275 C 338.000 321.096,338.630 320.702,339.400 320.400 C 340.170 320.098,340.800 319.614,340.800 319.325 C 340.800 318.596,340.137 318.666,339.846 319.425 M60.583 320.027 C 60.438 320.262,60.696 320.552,61.155 320.672 C 61.615 320.793,61.892 321.050,61.772 321.245 C 61.651 321.440,61.923 321.600,62.376 321.600 C 62.829 321.600,63.200 321.735,63.201 321.900 C 63.201 322.065,64.371 322.734,65.801 323.386 C 67.230 324.039,68.400 324.714,68.400 324.886 C 68.400 325.059,68.670 325.200,69.000 325.200 C 69.330 325.200,69.600 325.020,69.600 324.800 C 69.600 324.580,69.330 324.400,69.000 324.400 C 68.670 324.400,68.400 324.220,68.400 324.000 C 68.400 323.780,68.130 323.600,67.800 323.600 C 67.470 323.600,67.200 323.420,67.200 323.200 C 67.200 322.980,66.840 322.800,66.400 322.800 C 65.960 322.800,65.600 322.620,65.600 322.400 C 65.600 322.180,65.322 322.000,64.983 322.000 C 64.644 322.000,63.980 321.640,63.508 321.200 C 63.036 320.760,62.413 320.400,62.125 320.400 C 61.836 320.400,61.600 320.220,61.600 320.000 C 61.600 319.470,60.917 319.488,60.583 320.027 M70.000 325.600 C 70.000 325.820,70.270 326.000,70.600 326.000 C 70.930 326.000,71.200 325.820,71.200 325.600 C 71.200 325.380,70.930 325.200,70.600 325.200 C 70.270 325.200,70.000 325.380,70.000 325.600 M328.800 325.600 C 328.800 325.820,329.070 326.000,329.400 326.000 C 329.730 326.000,330.000 325.820,330.000 325.600 C 330.000 325.380,329.730 325.200,329.400 325.200 C 329.070 325.200,328.800 325.380,328.800 325.600 M74.000 328.000 C 74.000 328.220,74.270 328.400,74.600 328.400 C 74.930 328.400,75.200 328.220,75.200 328.000 C 75.200 327.780,74.930 327.600,74.600 327.600 C 74.270 327.600,74.000 327.780,74.000 328.000 M324.800 328.000 C 324.800 328.220,325.070 328.400,325.400 328.400 C 325.730 328.400,326.000 328.220,326.000 328.000 C 326.000 327.780,325.730 327.600,325.400 327.600 C 325.070 327.600,324.800 327.780,324.800 328.000 M75.600 328.800 C 75.600 329.020,75.870 329.200,76.200 329.200 C 76.530 329.200,76.800 329.380,76.800 329.600 C 76.800 329.820,77.160 330.000,77.600 330.000 C 78.040 330.000,78.400 330.180,78.400 330.400 C 78.400 330.620,78.580 330.800,78.800 330.800 C 79.679 330.800,79.113 330.102,77.562 329.274 C 75.693 328.276,75.600 328.254,75.600 328.800 M322.300 329.306 C 320.864 330.105,320.352 330.800,321.200 330.800 C 321.420 330.800,321.600 330.620,321.600 330.400 C 321.600 330.180,321.960 330.000,322.400 330.000 C 322.840 330.000,323.200 329.820,323.200 329.600 C 323.200 329.380,323.470 329.200,323.800 329.200 C 324.130 329.200,324.400 329.020,324.400 328.800 C 324.400 328.250,324.040 328.337,322.300 329.306 M79.467 330.667 C 79.006 331.127,79.175 331.600,79.800 331.600 C 80.130 331.600,80.400 331.330,80.400 331.000 C 80.400 330.375,79.927 330.206,79.467 330.667 M319.600 330.967 C 319.600 331.315,319.885 331.600,320.233 331.600 C 320.940 331.600,320.817 330.739,320.075 330.492 C 319.814 330.405,319.600 330.618,319.600 330.967 M80.800 332.000 C 80.800 332.220,81.160 332.400,81.600 332.400 C 82.040 332.400,82.400 332.551,82.400 332.736 C 82.400 332.920,82.850 333.277,83.400 333.527 C 84.171 333.879,84.398 333.871,84.390 333.491 C 84.373 332.674,80.800 331.189,80.800 332.000 M316.909 332.354 C 315.570 333.023,315.165 333.867,316.182 333.867 C 316.503 333.867,316.672 333.717,316.559 333.533 C 316.445 333.350,316.633 333.200,316.976 333.200 C 317.319 333.200,317.600 333.020,317.600 332.800 C 317.600 332.580,317.960 332.400,318.400 332.400 C 318.840 332.400,319.200 332.220,319.200 332.000 C 319.200 331.462,318.464 331.576,316.909 332.354 M84.800 334.167 C 84.800 334.515,85.085 334.800,85.433 334.800 C 86.140 334.800,86.017 333.939,85.275 333.692 C 85.014 333.605,84.800 333.818,84.800 334.167 M314.267 333.867 C 313.806 334.327,313.975 334.800,314.600 334.800 C 314.930 334.800,315.200 334.530,315.200 334.200 C 315.200 333.575,314.727 333.406,314.267 333.867 M86.644 334.690 C 86.177 335.156,86.405 335.600,87.112 335.600 C 87.503 335.600,88.083 335.960,88.400 336.400 C 88.982 337.207,90.000 337.495,90.000 336.853 C 90.000 336.366,86.940 334.393,86.644 334.690 M311.500 335.502 C 310.675 336.056,310.000 336.664,310.000 336.854 C 310.000 337.427,310.599 337.247,311.508 336.400 C 311.980 335.960,312.644 335.600,312.983 335.600 C 313.322 335.600,313.600 335.431,313.600 335.224 C 313.600 334.442,312.952 334.528,311.500 335.502 M90.400 337.400 C 90.400 337.733,90.756 338.000,91.200 338.000 C 91.640 338.000,92.000 338.180,92.000 338.400 C 92.000 338.620,92.300 338.800,92.667 338.800 C 93.033 338.800,93.216 338.917,93.073 339.061 C 92.929 339.204,93.280 339.564,93.852 339.861 C 95.151 340.535,95.200 340.533,95.200 339.800 C 95.200 339.470,94.930 339.200,94.600 339.200 C 94.270 339.200,94.000 339.020,94.000 338.800 C 94.000 338.580,93.730 338.400,93.400 338.400 C 93.070 338.400,92.800 338.220,92.800 338.000 C 92.800 337.780,92.440 337.600,92.000 337.600 C 91.560 337.600,91.200 337.420,91.200 337.200 C 91.200 336.980,91.020 336.800,90.800 336.800 C 90.580 336.800,90.400 337.070,90.400 337.400 M308.800 337.200 C 308.800 337.420,308.440 337.600,308.000 337.600 C 307.560 337.600,307.200 337.780,307.200 338.000 C 307.200 338.220,306.930 338.400,306.600 338.400 C 306.270 338.400,306.000 338.580,306.000 338.800 C 306.000 339.020,305.730 339.200,305.400 339.200 C 305.070 339.200,304.800 339.470,304.800 339.800 C 304.800 340.533,304.849 340.535,306.148 339.861 C 306.720 339.564,307.071 339.204,306.927 339.061 C 306.784 338.917,306.967 338.800,307.333 338.800 C 307.700 338.800,308.000 338.620,308.000 338.400 C 308.000 338.180,308.360 338.000,308.800 338.000 C 309.244 338.000,309.600 337.733,309.600 337.400 C 309.600 337.070,309.420 336.800,309.200 336.800 C 308.980 336.800,308.800 336.980,308.800 337.200 M95.600 340.410 C 95.600 340.912,97.553 341.697,98.161 341.440 C 98.402 341.338,98.195 341.131,97.700 340.980 C 97.205 340.830,96.800 340.548,96.800 340.353 C 96.800 340.159,96.530 340.000,96.200 340.000 C 95.870 340.000,95.600 340.184,95.600 340.410 M303.200 340.587 C 303.200 340.945,303.435 341.085,303.800 340.945 C 304.130 340.818,304.400 340.554,304.400 340.357 C 304.400 340.161,304.130 340.000,303.800 340.000 C 303.470 340.000,303.200 340.264,303.200 340.587 M99.600 342.800 C 99.600 343.020,99.870 343.200,100.200 343.200 C 100.530 343.200,100.800 343.020,100.800 342.800 C 100.800 342.580,100.530 342.400,100.200 342.400 C 99.870 342.400,99.600 342.580,99.600 342.800 M299.200 342.800 C 299.200 343.020,299.470 343.200,299.800 343.200 C 300.130 343.200,300.400 343.020,300.400 342.800 C 300.400 342.580,300.130 342.400,299.800 342.400 C 299.470 342.400,299.200 342.580,299.200 342.800 M101.200 343.600 C 101.200 343.820,101.470 344.000,101.800 344.000 C 102.130 344.000,102.400 343.820,102.400 343.600 C 102.400 343.380,102.130 343.200,101.800 343.200 C 101.470 343.200,101.200 343.380,101.200 343.600 M297.600 343.600 C 297.600 343.820,297.870 344.000,298.200 344.000 C 298.530 344.000,298.800 343.820,298.800 343.600 C 298.800 343.380,298.530 343.200,298.200 343.200 C 297.870 343.200,297.600 343.380,297.600 343.600 M102.800 344.229 C 102.800 344.621,103.922 345.600,104.371 345.600 C 105.074 345.600,104.858 344.859,104.026 344.414 C 103.154 343.947,102.800 343.894,102.800 344.229 M295.900 344.557 C 295.034 345.215,295.005 345.600,295.824 345.600 C 296.167 345.600,296.336 345.420,296.200 345.200 C 296.064 344.980,296.233 344.800,296.576 344.800 C 296.919 344.800,297.200 344.620,297.200 344.400 C 297.200 343.861,296.744 343.916,295.900 344.557 M105.456 345.478 C 105.005 345.928,105.181 346.400,105.800 346.400 C 106.130 346.400,106.400 346.231,106.400 346.024 C 106.400 345.519,105.775 345.158,105.456 345.478 M293.856 345.478 C 293.405 345.928,293.581 346.400,294.200 346.400 C 294.530 346.400,294.800 346.231,294.800 346.024 C 294.800 345.519,294.175 345.158,293.856 345.478 M290.474 347.622 C 289.965 347.826,289.659 348.171,289.793 348.388 C 290.054 348.811,291.600 348.054,291.600 347.504 C 291.600 347.151,291.665 347.144,290.474 347.622 M109.200 348.167 C 109.200 348.515,109.485 348.800,109.833 348.800 C 110.182 348.800,110.395 348.586,110.308 348.325 C 110.061 347.583,109.200 347.460,109.200 348.167 M110.667 348.667 C 110.160 349.174,110.403 349.600,111.200 349.600 C 111.640 349.600,112.000 349.780,112.000 350.000 C 112.000 350.220,112.320 350.400,112.712 350.400 C 113.103 350.400,113.683 350.760,114.000 351.200 C 114.644 352.093,115.600 352.271,115.600 351.498 C 115.600 351.221,114.700 350.582,113.600 350.078 C 112.500 349.573,111.600 348.989,111.600 348.780 C 111.600 348.342,111.058 348.276,110.667 348.667 M288.400 348.747 C 288.400 348.974,287.500 349.573,286.400 350.078 C 285.300 350.582,284.400 351.221,284.400 351.498 C 284.400 352.271,285.356 352.093,286.000 351.200 C 286.317 350.760,286.897 350.400,287.288 350.400 C 287.680 350.400,288.000 350.220,288.000 350.000 C 288.000 349.780,288.375 349.600,288.833 349.600 C 289.299 349.600,289.597 349.390,289.508 349.125 C 289.304 348.513,288.400 348.204,288.400 348.747 M116.220 351.914 C 115.756 352.377,116.033 352.800,116.800 352.800 C 117.240 352.800,117.600 352.980,117.600 353.200 C 117.600 353.420,117.971 353.600,118.424 353.600 C 118.877 353.600,119.136 353.780,119.000 354.000 C 118.864 354.220,118.943 354.400,119.176 354.400 C 119.409 354.400,119.600 354.130,119.600 353.800 C 119.600 353.470,119.330 353.200,119.000 353.200 C 118.670 353.200,118.399 353.065,118.397 352.900 C 118.393 352.496,116.497 351.637,116.220 351.914 M282.500 352.170 C 282.005 352.401,281.600 352.727,281.600 352.895 C 281.600 353.063,281.330 353.200,281.000 353.200 C 280.670 353.200,280.400 353.470,280.400 353.800 C 280.400 354.130,280.591 354.400,280.824 354.400 C 281.057 354.400,281.136 354.220,281.000 354.000 C 280.864 353.780,281.123 353.600,281.576 353.600 C 282.029 353.600,282.400 353.420,282.400 353.200 C 282.400 352.980,282.760 352.800,283.200 352.800 C 283.640 352.800,284.000 352.631,284.000 352.424 C 284.000 351.813,283.461 351.722,282.500 352.170 M120.000 354.600 C 120.000 354.930,120.270 355.200,120.600 355.200 C 120.930 355.200,121.200 354.930,121.200 354.600 C 121.200 354.270,120.930 354.000,120.600 354.000 C 120.270 354.000,120.000 354.270,120.000 354.600 M278.800 354.600 C 278.800 354.930,279.070 355.200,279.400 355.200 C 279.730 355.200,280.000 354.930,280.000 354.600 C 280.000 354.270,279.730 354.000,279.400 354.000 C 279.070 354.000,278.800 354.270,278.800 354.600 M121.600 355.400 C 121.600 355.730,121.878 356.000,122.217 356.000 C 122.556 356.000,123.220 356.360,123.692 356.800 C 124.686 357.726,125.200 357.820,125.200 357.075 C 125.200 356.786,124.570 356.302,123.800 356.000 C 123.030 355.698,122.400 355.304,122.400 355.125 C 122.400 354.946,122.220 354.800,122.000 354.800 C 121.780 354.800,121.600 355.070,121.600 355.400 M276.900 355.344 C 276.405 355.589,276.000 355.927,276.000 356.095 C 276.000 356.263,275.730 356.400,275.400 356.400 C 275.070 356.400,274.800 356.670,274.800 357.000 C 274.800 357.818,275.285 357.753,276.308 356.800 C 276.780 356.360,277.444 356.000,277.783 356.000 C 278.122 356.000,278.400 355.730,278.400 355.400 C 278.400 354.721,278.176 354.712,276.900 355.344 M126.800 358.400 C 126.800 358.620,127.070 358.800,127.400 358.800 C 127.730 358.800,128.000 358.620,128.000 358.400 C 128.000 358.180,127.730 358.000,127.400 358.000 C 127.070 358.000,126.800 358.180,126.800 358.400 M272.000 358.400 C 272.000 358.620,272.270 358.800,272.600 358.800 C 272.930 358.800,273.200 358.620,273.200 358.400 C 273.200 358.180,272.930 358.000,272.600 358.000 C 272.270 358.000,272.000 358.180,272.000 358.400 M128.400 359.029 C 128.400 359.421,129.522 360.400,129.971 360.400 C 130.207 360.400,130.400 360.220,130.400 360.000 C 130.400 359.780,130.130 359.600,129.800 359.600 C 129.470 359.600,129.200 359.420,129.200 359.200 C 129.200 358.980,129.020 358.800,128.800 358.800 C 128.580 358.800,128.400 358.903,128.400 359.029 M270.800 359.200 C 270.800 359.420,270.530 359.600,270.200 359.600 C 269.870 359.600,269.600 359.780,269.600 360.000 C 269.600 360.582,270.368 360.490,271.029 359.829 C 271.699 359.158,271.758 358.800,271.200 358.800 C 270.980 358.800,270.800 358.980,270.800 359.200 M130.800 360.800 C 130.800 361.020,131.070 361.200,131.400 361.200 C 131.730 361.200,132.000 361.020,132.000 360.800 C 132.000 360.580,131.730 360.400,131.400 360.400 C 131.070 360.400,130.800 360.580,130.800 360.800 M268.000 360.987 C 268.000 361.345,268.235 361.485,268.600 361.345 C 268.930 361.218,269.200 360.954,269.200 360.757 C 269.200 360.561,268.930 360.400,268.600 360.400 C 268.270 360.400,268.000 360.664,268.000 360.987 M266.177 361.767 C 265.750 362.079,265.536 362.469,265.701 362.634 C 265.865 362.799,266.000 362.723,266.000 362.467 C 266.000 362.210,266.360 362.000,266.800 362.000 C 267.240 362.000,267.600 361.820,267.600 361.600 C 267.600 361.041,267.088 361.101,266.177 361.767 M135.056 362.678 C 134.605 363.128,134.781 363.600,135.400 363.600 C 135.730 363.600,136.000 363.431,136.000 363.224 C 136.000 362.719,135.375 362.358,135.056 362.678 M264.256 362.678 C 263.805 363.128,263.981 363.600,264.600 363.600 C 264.930 363.600,265.200 363.431,265.200 363.224 C 265.200 362.719,264.575 362.358,264.256 362.678 M262.656 363.478 C 262.205 363.928,262.381 364.400,263.000 364.400 C 263.330 364.400,263.600 364.231,263.600 364.024 C 263.600 363.519,262.975 363.158,262.656 363.478 M136.400 364.000 C 136.400 364.220,136.670 364.400,137.000 364.400 C 137.330 364.400,137.600 364.220,137.600 364.000 C 137.600 363.780,137.330 363.600,137.000 363.600 C 136.670 363.600,136.400 363.780,136.400 364.000 M138.000 364.800 C 138.000 365.020,138.360 365.200,138.800 365.200 C 139.240 365.200,139.600 365.410,139.600 365.667 C 139.600 365.923,139.735 365.999,139.899 365.834 C 140.064 365.669,139.850 365.279,139.423 364.967 C 138.512 364.301,138.000 364.241,138.000 364.800 M260.577 364.967 C 260.150 365.279,259.936 365.669,260.101 365.834 C 260.265 365.999,260.400 365.923,260.400 365.667 C 260.400 365.410,260.760 365.200,261.200 365.200 C 261.640 365.200,262.000 365.020,262.000 364.800 C 262.000 364.241,261.488 364.301,260.577 364.967 M140.400 366.167 C 140.400 366.515,140.685 366.800,141.033 366.800 C 141.382 366.800,141.595 366.586,141.508 366.325 C 141.261 365.583,140.400 365.460,140.400 366.167 M258.667 365.867 C 258.206 366.327,258.375 366.800,259.000 366.800 C 259.330 366.800,259.600 366.530,259.600 366.200 C 259.600 365.575,259.127 365.406,258.667 365.867 M142.243 366.691 C 141.859 367.074,141.960 367.600,142.417 367.600 C 142.646 367.600,143.220 367.960,143.692 368.400 C 144.164 368.840,144.787 369.200,145.075 369.200 C 145.364 369.200,145.600 369.380,145.600 369.600 C 145.600 369.820,145.945 370.000,146.367 370.000 C 146.788 370.000,147.193 370.167,147.267 370.370 C 147.340 370.573,147.670 370.798,148.000 370.870 C 148.330 370.942,148.891 371.315,149.247 371.700 C 149.603 372.085,150.098 372.400,150.347 372.400 C 151.071 372.400,150.870 371.315,150.100 371.071 C 149.202 370.786,147.077 369.505,146.745 369.049 C 146.604 368.856,146.288 368.822,146.042 368.974 C 145.796 369.126,145.486 368.969,145.354 368.625 C 145.222 368.281,144.898 368.000,144.633 368.000 C 144.368 368.000,143.776 367.651,143.318 367.224 C 142.860 366.797,142.376 366.557,142.243 366.691 M257.200 366.709 C 257.200 366.905,256.705 367.320,256.100 367.632 C 255.495 367.944,254.854 368.428,254.675 368.708 C 254.497 368.988,254.162 369.100,253.931 368.957 C 253.700 368.814,253.396 368.856,253.255 369.049 C 252.923 369.505,250.798 370.786,249.900 371.071 C 249.096 371.326,248.944 372.400,249.712 372.400 C 249.993 372.400,250.483 372.040,250.800 371.600 C 251.117 371.160,251.697 370.800,252.088 370.800 C 252.480 370.800,252.800 370.620,252.800 370.400 C 252.800 370.180,253.160 370.000,253.600 370.000 C 254.040 370.000,254.400 369.864,254.400 369.698 C 254.400 369.531,254.941 369.156,255.602 368.863 C 256.264 368.570,256.703 368.166,256.579 367.965 C 256.454 367.764,256.723 367.600,257.176 367.600 C 258.040 367.600,258.284 367.023,257.600 366.600 C 257.380 366.464,257.200 366.513,257.200 366.709 M151.200 372.600 C 151.200 372.933,151.556 373.200,152.000 373.200 C 152.440 373.200,152.800 373.359,152.800 373.553 C 152.800 373.748,153.250 373.993,153.800 374.098 C 154.350 374.203,154.800 374.134,154.800 373.945 C 154.800 373.755,154.530 373.600,154.200 373.600 C 153.870 373.600,153.600 373.420,153.600 373.200 C 153.600 372.980,153.330 372.800,153.000 372.800 C 152.670 372.800,152.400 372.620,152.400 372.400 C 152.400 372.180,152.130 372.000,151.800 372.000 C 151.470 372.000,151.200 372.270,151.200 372.600 M247.600 372.400 C 247.600 372.620,247.330 372.800,247.000 372.800 C 246.670 372.800,246.400 372.980,246.400 373.200 C 246.400 373.420,246.130 373.600,245.800 373.600 C 245.470 373.600,245.200 373.755,245.200 373.945 C 245.200 374.134,245.650 374.203,246.200 374.098 C 246.750 373.993,247.200 373.748,247.200 373.553 C 247.200 373.359,247.560 373.200,248.000 373.200 C 248.444 373.200,248.800 372.933,248.800 372.600 C 248.800 372.270,248.530 372.000,248.200 372.000 C 247.870 372.000,247.600 372.180,247.600 372.400 M155.200 374.800 C 155.200 375.020,155.470 375.200,155.800 375.200 C 156.130 375.200,156.400 375.020,156.400 374.800 C 156.400 374.580,156.130 374.400,155.800 374.400 C 155.470 374.400,155.200 374.580,155.200 374.800 M243.600 374.800 C 243.600 375.020,243.870 375.200,244.200 375.200 C 244.530 375.200,244.800 375.020,244.800 374.800 C 244.800 374.580,244.530 374.400,244.200 374.400 C 243.870 374.400,243.600 374.580,243.600 374.800 M158.400 376.229 C 158.400 376.621,159.522 377.600,159.971 377.600 C 160.207 377.600,160.400 377.780,160.400 378.000 C 160.400 378.220,160.670 378.400,161.000 378.400 C 161.330 378.400,161.600 378.220,161.600 378.000 C 161.600 377.780,161.330 377.600,161.000 377.600 C 160.670 377.600,160.400 377.420,160.400 377.200 C 160.400 376.980,160.130 376.800,159.800 376.800 C 159.470 376.800,159.200 376.620,159.200 376.400 C 159.200 376.180,159.020 376.000,158.800 376.000 C 158.580 376.000,158.400 376.103,158.400 376.229 M240.800 376.400 C 240.800 376.620,240.530 376.800,240.200 376.800 C 239.870 376.800,239.600 376.980,239.600 377.200 C 239.600 377.420,239.330 377.600,239.000 377.600 C 238.670 377.600,238.400 377.780,238.400 378.000 C 238.400 378.220,238.670 378.400,239.000 378.400 C 239.330 378.400,239.600 378.220,239.600 378.000 C 239.600 377.780,239.793 377.600,240.029 377.600 C 240.478 377.600,241.600 376.621,241.600 376.229 C 241.600 376.103,241.420 376.000,241.200 376.000 C 240.980 376.000,240.800 376.180,240.800 376.400 M162.000 378.800 C 162.000 379.020,162.360 379.200,162.800 379.200 C 163.240 379.200,163.600 379.380,163.600 379.600 C 163.600 379.820,163.881 380.000,164.224 380.000 C 164.567 380.000,164.736 380.180,164.600 380.400 C 164.464 380.620,164.633 380.800,164.976 380.800 C 166.022 380.800,165.676 380.124,164.177 379.240 C 162.611 378.315,162.000 378.192,162.000 378.800 M235.700 379.270 C 234.367 380.094,234.003 380.800,234.912 380.800 C 235.193 380.800,235.683 380.440,236.000 380.000 C 236.317 379.560,236.897 379.200,237.288 379.200 C 237.680 379.200,238.000 379.020,238.000 378.800 C 238.000 378.199,237.152 378.372,235.700 379.270 M166.256 380.678 C 165.805 381.128,165.981 381.600,166.600 381.600 C 166.930 381.600,167.200 381.431,167.200 381.224 C 167.200 380.719,166.575 380.358,166.256 380.678 M233.056 380.678 C 232.605 381.128,232.781 381.600,233.400 381.600 C 233.730 381.600,234.000 381.431,234.000 381.224 C 234.000 380.719,233.375 380.358,233.056 380.678 M167.400 382.000 C 167.260 382.227,167.596 382.400,168.176 382.400 C 168.739 382.400,169.200 382.610,169.200 382.867 C 169.200 383.123,169.335 383.199,169.499 383.034 C 169.664 382.869,169.450 382.479,169.023 382.167 C 168.105 381.496,167.735 381.458,167.400 382.000 M230.977 382.167 C 230.550 382.479,230.336 382.869,230.501 383.034 C 230.665 383.199,230.800 383.123,230.800 382.867 C 230.800 382.610,231.261 382.400,231.824 382.400 C 232.404 382.400,232.740 382.227,232.600 382.000 C 232.265 381.458,231.895 381.496,230.977 382.167 M170.000 383.367 C 170.000 383.715,170.285 384.000,170.633 384.000 C 171.340 384.000,171.217 383.139,170.475 382.892 C 170.214 382.805,170.000 383.018,170.000 383.367 M229.067 383.067 C 228.606 383.527,228.775 384.000,229.400 384.000 C 229.730 384.000,230.000 383.730,230.000 383.400 C 230.000 382.775,229.527 382.606,229.067 383.067 M171.600 384.200 C 171.600 384.533,171.956 384.800,172.400 384.800 C 172.840 384.800,173.200 384.980,173.200 385.200 C 173.200 385.420,173.545 385.600,173.967 385.600 C 174.388 385.600,174.824 385.825,174.935 386.100 C 175.095 386.496,175.143 386.494,175.168 386.094 C 175.186 385.815,174.570 385.287,173.800 384.919 C 173.030 384.552,172.400 384.105,172.400 383.926 C 172.400 383.747,172.220 383.600,172.000 383.600 C 171.780 383.600,171.600 383.870,171.600 384.200 M226.400 384.658 C 225.630 385.203,224.969 385.822,224.930 386.034 C 224.892 386.246,224.952 386.236,225.063 386.010 C 225.175 385.784,225.612 385.600,226.033 385.600 C 226.455 385.600,226.800 385.420,226.800 385.200 C 226.800 384.980,227.160 384.800,227.600 384.800 C 228.044 384.800,228.400 384.533,228.400 384.200 C 228.400 383.404,228.067 383.480,226.400 384.658 M175.600 386.600 C 175.600 386.930,175.780 387.200,176.000 387.200 C 176.220 387.200,176.400 386.930,176.400 386.600 C 176.400 386.270,176.220 386.000,176.000 386.000 C 175.780 386.000,175.600 386.270,175.600 386.600 M223.600 386.600 C 223.600 386.930,223.780 387.200,224.000 387.200 C 224.220 387.200,224.400 386.930,224.400 386.600 C 224.400 386.270,224.220 386.000,224.000 386.000 C 223.780 386.000,223.600 386.270,223.600 386.600 M176.998 387.203 C 176.861 387.425,177.165 387.774,177.674 387.978 C 178.183 388.182,178.420 388.362,178.200 388.377 C 177.848 388.402,179.853 389.600,180.246 389.600 C 180.331 389.600,180.400 389.330,180.400 389.000 C 180.400 388.670,180.130 388.400,179.800 388.400 C 179.470 388.400,179.200 388.220,179.200 388.000 C 179.200 387.780,178.930 387.600,178.600 387.600 C 178.270 387.600,178.000 387.420,178.000 387.200 C 178.000 386.681,177.319 386.683,176.998 387.203 M222.000 387.102 C 222.000 387.269,221.460 387.644,220.800 387.936 C 219.676 388.433,219.115 389.600,220.000 389.600 C 220.220 389.600,220.400 389.420,220.400 389.200 C 220.400 388.980,220.771 388.800,221.224 388.800 C 221.677 388.800,221.949 388.640,221.828 388.445 C 221.708 388.250,221.985 387.993,222.445 387.872 C 222.904 387.752,223.162 387.462,223.017 387.227 C 222.714 386.738,222.000 386.650,222.000 387.102 M180.800 389.571 C 180.800 389.988,183.234 391.300,183.505 391.028 C 183.817 390.717,183.170 390.000,182.576 390.000 C 182.259 390.000,182.000 389.820,182.000 389.600 C 182.000 389.380,181.730 389.200,181.400 389.200 C 181.070 389.200,180.800 389.367,180.800 389.571 M218.000 389.600 C 218.000 389.820,217.741 390.000,217.424 390.000 C 216.830 390.000,216.183 390.717,216.495 391.028 C 216.766 391.300,219.200 389.988,219.200 389.571 C 219.200 389.367,218.930 389.200,218.600 389.200 C 218.270 389.200,218.000 389.380,218.000 389.600 M184.000 391.029 C 184.000 391.421,185.122 392.400,185.571 392.400 C 185.807 392.400,186.000 392.220,186.000 392.000 C 186.000 391.780,185.730 391.600,185.400 391.600 C 185.070 391.600,184.800 391.420,184.800 391.200 C 184.800 390.980,184.620 390.800,184.400 390.800 C 184.180 390.800,184.000 390.903,184.000 391.029 M215.200 391.200 C 215.200 391.420,214.930 391.600,214.600 391.600 C 214.270 391.600,214.000 391.780,214.000 392.000 C 214.000 392.582,214.768 392.490,215.429 391.829 C 216.099 391.158,216.158 390.800,215.600 390.800 C 215.380 390.800,215.200 390.980,215.200 391.200 M186.400 392.800 C 186.400 393.020,186.670 393.200,187.000 393.200 C 187.330 393.200,187.600 393.020,187.600 392.800 C 187.600 392.580,187.330 392.400,187.000 392.400 C 186.670 392.400,186.400 392.580,186.400 392.800 M212.400 392.800 C 212.400 393.020,212.670 393.200,213.000 393.200 C 213.330 393.200,213.600 393.020,213.600 392.800 C 213.600 392.580,213.330 392.400,213.000 392.400 C 212.670 392.400,212.400 392.580,212.400 392.800 M190.656 394.678 C 190.205 395.128,190.381 395.600,191.000 395.600 C 191.330 395.600,191.600 395.431,191.600 395.224 C 191.600 394.719,190.975 394.358,190.656 394.678 M208.656 394.678 C 208.205 395.128,208.381 395.600,209.000 395.600 C 209.330 395.600,209.600 395.431,209.600 395.224 C 209.600 394.719,208.975 394.358,208.656 394.678 M192.000 395.925 C 192.000 396.104,192.630 396.498,193.400 396.800 C 194.170 397.102,194.800 397.496,194.800 397.675 C 194.800 397.854,194.980 398.000,195.200 398.000 C 196.147 398.000,195.471 397.156,193.925 396.409 C 192.020 395.489,192.000 395.484,192.000 395.925 M205.900 396.447 C 204.495 397.158,203.899 398.000,204.800 398.000 C 205.020 398.000,205.200 397.854,205.200 397.675 C 205.200 397.496,205.830 397.102,206.600 396.800 C 207.370 396.498,208.000 396.104,208.000 395.925 C 208.000 395.477,207.637 395.567,205.900 396.447 M195.867 397.867 C 195.406 398.327,195.575 398.800,196.200 398.800 C 196.530 398.800,196.800 398.530,196.800 398.200 C 196.800 397.575,196.327 397.406,195.867 397.867 M203.200 398.167 C 203.200 398.515,203.485 398.800,203.833 398.800 C 204.182 398.800,204.395 398.586,204.308 398.325 C 204.061 397.583,203.200 397.460,203.200 398.167 M197.200 399.153 C 197.200 399.348,197.652 399.593,198.203 399.699 C 199.016 399.854,199.121 399.786,198.755 399.345 C 198.249 398.736,197.200 398.607,197.200 399.153 M201.245 399.345 C 200.879 399.786,200.984 399.854,201.797 399.699 C 202.348 399.593,202.800 399.348,202.800 399.153 C 202.800 398.607,201.751 398.736,201.245 399.345 " stroke="none" fill="#5c5c5c" fill-rule="evenodd"></path></g></svg>
